<?xml version="1.0" standalone="no"?>
<!DOCTYPE svg PUBLIC "-//W3C//DTD SVG 20010904//EN"
 "http://www.w3.org/TR/2001/REC-SVG-20010904/DTD/svg10.dtd">
<svg version="1.0" xmlns="http://www.w3.org/2000/svg"
 width="616.000000pt" height="170.000000pt" viewBox="0 0 616.000000 170.000000"
 preserveAspectRatio="xMidYMid meet">

<g transform="translate(0.000000,170.000000) scale(0.100000,-0.100000)"
fill="#000000" stroke="none">
<path d="M676 1624 c-3 -8 -6 -45 -6 -80 l0 -64 -33 0 c-18 0 -43 -7 -55 -16
-21 -14 -22 -21 -22 -165 l0 -149 -179 0 c-204 0 -191 7 -191 -96 l0 -64 -33
0 c-18 0 -43 -7 -55 -16 -22 -15 -22 -20 -22 -219 0 -172 2 -206 16 -219 13
-14 47 -16 215 -16 269 0 249 20 249 -254 0 -173 2 -207 16 -220 13 -14 48
-16 223 -16 229 0 238 2 243 60 l3 35 85 5 85 5 3 193 2 192 133 0 c149 0 164
5 169 60 l3 35 85 5 85 5 3 240 c1 132 0 251 -3 263 l-6 24 -302 -5 c-166 -2
-312 -8 -324 -12 l-23 -7 0 160 c0 133 -3 163 -16 176 -12 13 -41 16 -155 16
l-139 0 0 50 0 50 220 0 220 0 0 -166 0 -165 23 3 c22 3 22 4 22 193 l0 190
-266 3 c-237 2 -267 1 -273 -14z m-116 -562 c0 -16 -9 -38 -20 -50 -19 -21
-30 -22 -155 -22 l-135 0 0 50 0 50 155 0 155 0 0 -28z m1080 -182 l0 -211
-57 3 -58 3 -5 148 c-4 117 -8 150 -20 157 -8 5 -105 10 -216 10 -217 0 -221
1 -238 57 -6 19 -2 24 26 32 18 5 153 10 301 10 l267 1 0 -210z m-472 -533 l2
-168 -62 3 -63 3 0 148 c0 145 1 149 24 168 17 14 36 19 60 17 l36 -3 3 -168z"/>
<path d="M2186 1429 c-76 -10 -105 -27 -166 -96 -88 -101 -137 -264 -125 -418
16 -206 84 -327 227 -402 50 -27 59 -28 183 -28 152 1 212 19 288 85 103 91
147 199 154 381 5 110 3 136 -16 197 -37 124 -115 218 -219 265 -54 24 -208
32 -326 16z m59 -150 c5 -7 25 -8 55 -4 27 4 73 2 104 -5 104 -21 146 -105
146 -290 0 -125 -16 -191 -63 -252 -46 -61 -108 -93 -177 -92 -94 1 -150 46
-190 151 -57 148 -28 345 66 460 37 44 48 51 59 32z"/>
<path d="M4840 1423 c-177 -24 -160 -2 -160 -205 0 -95 -5 -245 -10 -333 -16
-265 -16 -355 1 -366 27 -16 98 -21 256 -17 133 4 167 8 215 27 72 28 162 108
179 158 18 55 13 145 -10 190 -22 43 -87 107 -120 118 -31 10 -25 26 22 60 49
35 87 103 87 155 0 53 -45 137 -90 166 -84 56 -200 70 -370 47z m270 -191 c42
-52 -14 -111 -149 -157 -109 -37 -104 -40 -99 68 2 50 7 98 12 105 6 11 33 13
113 10 95 -3 107 -5 123 -26z m-155 -352 c143 -1 195 -26 195 -94 0 -67 -104
-126 -232 -134 l-78 -5 0 104 c0 117 7 156 23 140 6 -6 47 -11 92 -11z"/>
<path d="M5737 1429 c-114 -23 -220 -97 -260 -181 -9 -20 -17 -59 -17 -88 0
-116 88 -206 255 -263 144 -49 195 -86 195 -141 0 -74 -114 -138 -250 -140
-68 -1 -80 2 -137 34 -34 19 -64 32 -67 29 -8 -7 29 -77 55 -105 12 -13 56
-37 97 -55 70 -29 83 -31 166 -27 143 6 253 65 301 161 47 96 26 197 -60 276
-52 48 -98 72 -222 117 -114 41 -138 57 -152 96 -15 44 14 85 86 122 66 33
183 29 296 -10 48 -17 57 -2 33 61 -21 55 -58 92 -105 105 -54 16 -160 20
-214 9z"/>
<path d="M3025 1416 c-60 -6 -116 -15 -122 -19 -17 -11 -19 -848 -3 -878 10
-18 23 -19 178 -19 151 0 173 3 237 25 194 68 306 222 322 440 10 137 -23 236
-109 330 -114 125 -218 150 -503 121z m315 -198 c161 -82 134 -440 -39 -515
-20 -8 -79 -18 -134 -20 l-98 -6 3 272 c3 228 5 273 18 281 8 5 58 10 110 10
80 0 103 -4 140 -22z"/>
<path d="M4049 1413 c-12 -3 -38 -65 -84 -201 -83 -244 -123 -340 -143 -344
-10 -2 -20 -24 -28 -63 -6 -33 -28 -102 -48 -152 -20 -51 -36 -97 -36 -102 0
-15 75 -33 123 -29 l42 3 39 97 c36 88 43 98 65 98 15 0 53 7 86 14 33 8 94
16 135 18 l75 3 16 -47 c8 -26 19 -51 22 -55 4 -3 7 -13 7 -22 0 -9 7 -29 15
-45 8 -15 15 -34 15 -42 0 -29 43 -44 126 -44 97 0 104 8 68 80 -26 54 -84
216 -84 236 0 8 6 14 13 14 18 0 35 44 26 68 -7 17 -17 22 -48 22 -34 0 -41 4
-55 34 -20 43 -139 349 -156 401 -20 62 -25 65 -104 64 -39 -1 -78 -3 -87 -6z
m119 -361 c48 -126 49 -127 15 -140 -24 -11 -154 -33 -160 -28 -4 3 102 256
107 256 3 0 20 -39 38 -88z"/>
<path d="M2060 361 c49 -13 62 -36 58 -98 -6 -75 -73 -153 -133 -153 -22 0
-19 23 19 133 31 90 33 116 8 85 -5 -7 -24 -58 -41 -112 -33 -103 -32 -115 12
-116 24 0 87 27 110 48 31 27 57 88 57 130 0 56 -25 82 -80 87 -42 4 -43 4
-10 -4z"/>
<path d="M2496 332 c-40 -64 -75 -173 -64 -202 10 -28 15 -25 51 40 22 41 43
34 39 -13 -3 -33 -1 -37 20 -36 13 0 18 3 11 6 -9 3 -11 18 -6 49 5 42 5 44
-20 44 -17 0 -35 -11 -52 -32 -24 -30 -26 -31 -19 -8 4 14 21 42 39 62 32 38
55 93 47 116 -7 21 -21 13 -46 -26z m13 -54 c-12 -23 -24 -37 -26 -31 -5 14
36 87 44 79 2 -2 -6 -24 -18 -48z"/>
<path d="M2661 325 c-15 -24 -36 -66 -45 -92 -9 -26 -23 -61 -31 -76 -8 -15
-10 -25 -5 -22 5 3 14 -4 20 -15 13 -25 40 -26 71 -2 39 30 60 34 75 15 12
-17 14 -17 44 -1 41 24 66 23 73 -2 5 -21 31 -27 42 -10 3 6 -1 7 -9 4 -32
-12 -14 48 27 94 43 46 64 14 26 -39 -17 -24 -18 -33 -9 -44 18 -22 44 -18 66
8 19 22 19 22 -2 4 -22 -18 -44 -23 -44 -8 0 5 7 25 16 46 14 34 14 40 1 53
-24 23 -64 7 -95 -38 -27 -40 -61 -56 -47 -22 16 34 11 67 -9 67 -29 0 -43
-29 -29 -64 10 -27 9 -31 -9 -37 -28 -8 -34 2 -21 36 15 39 0 38 -27 0 -28
-39 -48 -39 -42 -1 5 35 -14 49 -36 28 -13 -14 -14 -21 -3 -43 10 -22 9 -30
-3 -42 -8 -8 -20 -11 -26 -7 -18 11 -6 96 14 107 39 22 87 148 56 148 -6 0
-23 -20 -39 -45z m18 -44 c-27 -49 -47 -56 -23 -8 20 40 35 59 41 53 3 -3 -5
-23 -18 -45z m152 -88 c-11 -24 -14 -26 -22 -10 -13 22 8 64 24 48 7 -7 7 -18
-2 -38z m-141 -14 c0 -10 -4 -19 -9 -19 -12 0 -23 29 -15 41 8 14 24 0 24 -22z"/>
<path d="M3291 305 c-17 -36 -31 -69 -31 -74 0 -4 -14 -27 -30 -49 -32 -44
-60 -55 -60 -23 0 25 47 81 68 81 8 0 12 3 9 6 -13 14 -67 -19 -92 -57 -24
-34 -60 -58 -71 -47 -2 2 2 18 8 36 11 28 10 34 -10 55 -12 13 -19 27 -15 30
3 4 1 7 -5 7 -7 0 -12 -6 -12 -14 0 -8 -3 -23 -6 -33 -5 -15 -4 -15 5 -3 18
27 33 -1 19 -38 -17 -43 0 -61 41 -45 24 9 31 8 35 -3 8 -21 31 -17 65 12 30
25 31 25 31 5 0 -37 29 -37 63 0 20 20 22 25 6 11 -61 -53 -63 2 -3 120 35 70
40 88 25 88 -5 0 -23 -29 -40 -65z"/>
<path d="M4049 323 c-16 -27 -39 -74 -51 -106 -29 -80 -94 -127 -112 -81 -4 9
-5 17 -4 18 48 18 84 45 86 64 8 55 -60 30 -103 -38 -14 -22 -32 -40 -41 -40
-15 0 -14 10 3 56 2 6 -4 17 -13 24 -14 12 -20 12 -45 -2 -16 -10 -29 -13 -29
-8 0 25 -27 6 -42 -30 -16 -38 -42 -60 -55 -47 -3 4 2 25 11 48 15 38 16 44 2
58 -33 33 -116 -35 -116 -96 0 -27 26 -41 43 -24 9 9 8 11 -5 6 -34 -13 -18
45 25 93 43 46 64 14 26 -39 -17 -24 -18 -33 -9 -44 14 -17 46 -20 55 -5 3 5
12 7 19 4 8 -3 22 9 35 29 36 58 77 65 67 12 -6 -28 -3 -37 10 -42 9 -3 24 -1
34 4 13 9 19 7 28 -8 16 -25 53 -24 86 2 23 18 27 18 32 5 3 -9 16 -16 28 -15
11 0 15 3 9 6 -23 9 -14 55 18 91 36 41 59 90 59 127 0 38 -17 30 -51 -22z
m22 -40 c-11 -21 -27 -47 -36 -58 -16 -20 -16 -19 -9 5 10 36 57 115 62 102 2
-6 -6 -28 -17 -49z m-116 -53 c3 -5 -6 -21 -21 -35 -45 -41 -61 -29 -23 19 22
28 34 32 44 16z"/>
<path d="M1972 340 c-23 -22 -28 -45 -13 -54 5 -3 11 7 14 22 3 16 16 33 29
40 15 7 18 11 7 11 -8 1 -25 -8 -37 -19z"/>
<path d="M2360 245 c0 -8 -12 -29 -28 -47 -43 -52 -58 -72 -46 -65 7 4 17 0
24 -8 17 -21 47 -19 77 5 14 11 21 20 16 20 -10 0 -28 73 -24 98 1 6 -3 12 -9
12 -5 0 -10 -7 -10 -15z m10 -71 c0 -13 -4 -24 -10 -24 -5 0 -7 -7 -3 -16 4
-12 1 -15 -13 -12 -10 2 -20 12 -22 22 -3 11 0 16 7 12 7 -5 9 -1 5 9 -7 17
14 48 27 39 5 -3 9 -16 9 -30z"/>
<path d="M2184 214 c-23 -24 -34 -45 -34 -65 0 -33 24 -49 43 -30 9 9 8 11 -5
6 -24 -9 -23 15 2 64 23 46 49 59 67 35 7 -10 16 -15 19 -11 11 11 -17 37 -39
37 -11 0 -35 -16 -53 -36z"/>
<path d="M3411 186 c-6 -35 -18 -83 -26 -105 -8 -24 -10 -43 -4 -46 10 -7 21
18 39 92 19 81 70 132 87 87 9 -25 -15 -64 -50 -79 l-32 -14 28 -1 c40 0 77
40 77 84 0 43 -28 56 -65 32 -22 -15 -25 -15 -25 -1 0 8 -4 15 -9 15 -5 0 -14
-29 -20 -64z"/>
<path d="M2233 172 c-17 -22 -18 -30 -7 -40 7 -6 21 -12 31 -12 15 0 15 2 4 9
-12 8 -13 14 -3 36 14 31 15 35 4 35 -5 0 -17 -12 -29 -28z"/>
<path d="M3025 189 c-4 -6 -5 -12 -2 -15 2 -3 7 2 10 11 7 17 1 20 -8 4z"/>
</g>
</svg>
