<?xml version="1.0" standalone="no"?>
<!DOCTYPE svg PUBLIC "-//W3C//DTD SVG 20010904//EN"
 "http://www.w3.org/TR/2001/REC-SVG-20010904/DTD/svg10.dtd">
<svg version="1.0" xmlns="http://www.w3.org/2000/svg"
 width="984.000000pt" height="1755.000000pt" viewBox="0 0 984.000000 1755.000000"
 preserveAspectRatio="xMidYMid meet">

<g transform="translate(0.000000,1755.000000) scale(0.100000,-0.100000)"
fill="#000000" stroke="none">
<path d="M8738 15953 c-26 -7 -22 -23 6 -23 13 0 29 -7 36 -15 10 -13 10 -19
-4 -34 -23 -26 -2 -39 25 -15 46 41 1 103 -63 87z"/>
<path d="M1562 15878 c3 -7 14 -13 25 -14 42 -2 54 -22 28 -48 -22 -22 2 -32
26 -10 21 19 25 54 7 72 -16 16 -91 16 -86 0z"/>
<path d="M6240 15884 c0 -17 55 -74 72 -74 19 0 18 1 -3 40 -16 29 -29 40 -46
40 -13 0 -23 -3 -23 -6z"/>
<path d="M7551 15856 c-26 -41 -26 -46 -3 -46 9 0 30 18 45 40 l28 40 -25 0
c-17 0 -31 -10 -45 -34z"/>
<path d="M8636 15845 c-23 -30 -24 -35 -10 -35 10 0 28 10 41 22 l23 21 24
-22 c13 -13 31 -21 40 -19 13 2 11 9 -10 36 -35 45 -73 44 -108 -3z"/>
<path d="M1145 15851 c-158 -71 -167 -313 -15 -391 54 -27 140 -27 190 1 53
30 90 91 90 151 l0 48 -90 0 c-83 0 -90 -1 -90 -20 0 -18 7 -20 70 -20 66 0
70 -1 70 -22 0 -35 -35 -85 -72 -104 -43 -23 -115 -23 -154 0 -54 32 -79 81
-79 155 0 105 49 168 139 178 55 7 98 -9 131 -48 15 -18 29 -27 39 -23 23 9
20 19 -19 58 -56 56 -137 70 -210 37z"/>
<path d="M2630 15851 c-21 -40 0 -58 26 -23 12 16 14 16 44 0 18 -10 40 -18
50 -18 17 0 50 34 50 52 0 15 -29 8 -39 -9 -9 -17 -11 -17 -39 0 -40 23 -79
22 -92 -2z"/>
<path d="M3146 15855 c-80 -28 -135 -110 -136 -201 0 -69 39 -147 93 -182 36
-24 50 -27 123 -27 80 0 83 -1 99 -27 11 -19 25 -28 41 -28 l24 0 -26 40 -27
41 22 16 c13 8 34 39 47 67 42 90 28 181 -39 250 -60 63 -138 81 -221 51z
m142 -40 c84 -35 124 -142 87 -232 -16 -39 -43 -73 -56 -73 -4 0 -23 23 -43
50 -23 31 -43 50 -56 50 -27 0 -26 -5 15 -60 19 -26 35 -52 35 -58 0 -16 -48
-23 -89 -12 -52 14 -90 46 -112 94 -25 56 -24 103 6 162 42 84 125 115 213 79z"/>
<path d="M4330 15655 c0 -178 2 -215 14 -215 11 0 15 23 18 109 3 100 5 112
27 135 24 26 61 33 96 20 32 -13 45 -59 45 -164 0 -93 1 -100 20 -100 19 0 20
7 20 105 0 69 -5 118 -14 140 -15 36 -59 65 -100 65 -30 0 -76 -20 -76 -32 0
-5 -4 -6 -10 -3 -5 3 -10 40 -10 81 0 59 -3 74 -15 74 -13 0 -15 -31 -15 -215z"/>
<path d="M6780 15655 c0 -184 2 -215 15 -215 11 0 15 11 15 40 0 32 7 48 33
77 l34 36 54 -76 c40 -56 60 -76 77 -76 27 -1 29 -5 -45 97 -29 41 -53 79 -53
85 0 6 23 35 52 64 48 49 50 53 28 53 -17 0 -48 -23 -102 -77 l-78 -78 0 143
c0 120 -2 142 -15 142 -13 0 -15 -31 -15 -215z"/>
<path d="M7090 15655 c0 -178 2 -215 14 -215 11 0 15 23 18 109 3 100 5 112
27 135 24 26 61 33 96 20 32 -13 45 -59 45 -164 0 -93 1 -100 20 -100 19 0 20
7 20 105 0 69 -5 118 -14 140 -15 36 -59 65 -100 65 -29 0 -76 -19 -76 -32 0
-4 -4 -8 -10 -8 -6 0 -10 33 -10 80 0 64 -3 80 -15 80 -13 0 -15 -31 -15 -215z"/>
<path d="M8438 15848 c-2 -17 -11 -24 -30 -26 -16 -2 -28 -9 -28 -17 0 -8 12
-15 28 -17 24 -3 27 -7 30 -47 l3 -43 -32 22 c-47 34 -115 38 -158 8 -55 -37
-74 -70 -75 -130 0 -64 29 -120 77 -144 44 -23 129 -15 162 16 l25 23 0 -26
c0 -17 5 -27 15 -27 12 0 15 28 17 173 l3 172 28 3 c15 2 27 9 27 17 0 8 -12
15 -27 17 -20 2 -29 9 -31 26 -2 12 -10 22 -17 22 -7 0 -15 -10 -17 -22z m-60
-152 c36 -19 57 -59 56 -107 -2 -50 -27 -87 -71 -106 -73 -30 -147 27 -146
111 2 92 82 143 161 102z"/>
<path d="M1840 15830 c0 -20 5 -30 15 -30 10 0 15 10 15 30 0 20 -5 30 -15 30
-10 0 -15 -10 -15 -30z"/>
<path d="M3520 15650 c0 -202 1 -210 20 -210 17 0 19 8 22 83 l3 82 52 3 51 3
49 -85 c38 -68 53 -86 71 -86 l22 0 -21 43 c-12 23 -33 59 -45 79 -29 46 -30
55 -3 63 50 16 75 115 44 175 -24 47 -61 60 -170 60 l-95 0 0 -210z m221 141
c27 -33 25 -86 -6 -116 -21 -22 -33 -25 -100 -25 l-75 0 0 83 c0 46 2 86 4 88
3 2 39 2 81 -1 65 -4 80 -9 96 -29z"/>
<path d="M6550 15830 c0 -20 5 -30 15 -30 10 0 15 10 15 30 0 20 -5 30 -15 30
-10 0 -15 -10 -15 -30z"/>
<path d="M6405 15793 l0 -38 -73 -6 c-111 -8 -165 -58 -165 -152 0 -97 57
-157 150 -157 123 0 192 127 127 237 -24 41 -24 46 -10 62 27 29 18 91 -13 91
-12 0 -16 -9 -16 -37z m-8 -117 c53 -62 34 -153 -39 -189 -32 -16 -43 -17 -73
-7 -91 30 -106 169 -23 217 37 21 108 10 135 -21z"/>
<path d="M1738 15785 c4 -30 1 -35 -22 -41 l-26 -6 0 -108 0 -108 -31 -26
c-35 -30 -49 -32 -88 -11 -38 19 -41 30 -41 151 0 99 -1 104 -21 104 -20 0
-21 -4 -17 -121 l3 -121 33 -29 c38 -34 97 -39 137 -13 23 15 25 15 25 0 0 -9
8 -16 20 -16 19 0 20 7 20 134 0 132 0 134 25 150 36 24 33 96 -4 96 -13 0
-16 -7 -13 -35z"/>
<path d="M6078 15785 c4 -30 1 -35 -22 -41 -26 -6 -26 -6 -26 -113 -1 -115 -7
-133 -55 -151 -34 -13 -80 2 -95 31 -6 10 -10 65 -10 123 0 101 -1 106 -21
106 -20 0 -21 -4 -17 -121 l3 -121 33 -29 c38 -34 97 -39 137 -13 23 15 25 15
25 0 0 -9 8 -16 20 -16 19 0 20 7 20 134 0 132 0 134 25 150 36 24 33 96 -4
96 -13 0 -16 -7 -13 -35z"/>
<path d="M2133 15731 c-27 -17 -33 -18 -33 -6 0 8 -7 15 -15 15 -13 0 -15 -23
-15 -150 0 -127 2 -150 15 -150 12 0 15 16 15 88 0 139 20 181 87 182 22 0 37
-8 52 -26 18 -23 21 -41 21 -135 0 -102 1 -109 20 -109 19 0 20 7 20 100 0
114 14 156 57 166 36 9 75 -6 90 -36 8 -15 13 -65 13 -127 0 -96 1 -103 20
-103 19 0 20 7 20 105 0 69 -5 118 -14 140 -30 72 -138 87 -183 26 -10 -14
-14 -14 -36 7 -35 33 -93 38 -134 13z"/>
<path d="M2645 15732 c-16 -11 -36 -26 -43 -34 -21 -26 15 -32 45 -8 51 40
133 17 133 -37 0 -18 -10 -23 -67 -33 -85 -14 -118 -32 -131 -70 -13 -35 -8
-56 21 -87 27 -30 98 -31 145 -3 32 20 32 20 32 0 0 -13 7 -20 20 -20 19 0 20
7 20 115 0 63 -5 125 -11 138 -24 53 -108 73 -164 39z m135 -157 c0 -96 -134
-147 -163 -63 -13 38 54 76 156 87 4 1 7 -10 7 -24z"/>
<path d="M4049 15729 c-49 -29 -72 -71 -72 -133 -1 -95 55 -156 143 -156 69 0
147 57 109 80 -8 6 -18 2 -26 -10 -20 -28 -74 -43 -109 -30 -42 16 -63 38 -73
78 -31 111 83 198 167 127 18 -15 37 -23 46 -19 42 16 -52 84 -116 84 -18 0
-49 -10 -69 -21z"/>
<path d="M4735 15736 c-111 -50 -122 -209 -18 -277 41 -27 121 -25 163 4 67
45 87 125 51 204 -32 70 -122 102 -196 69z m142 -60 c53 -62 34 -153 -39 -189
-32 -16 -43 -17 -73 -7 -91 30 -106 169 -23 217 37 21 108 10 135 -21z"/>
<path d="M5203 15738 c-13 -6 -23 -15 -23 -20 0 -4 -4 -8 -10 -8 -5 0 -10 7
-10 15 0 8 -7 15 -15 15 -13 0 -15 -23 -15 -150 0 -122 3 -150 14 -150 11 0
15 23 18 109 3 100 5 112 27 135 30 32 78 34 112 7 22 -18 24 -27 27 -135 3
-106 5 -116 23 -116 18 0 19 8 19 105 0 69 -5 118 -14 140 -23 55 -96 80 -153
53z"/>
<path d="M5520 15728 c-53 -37 -74 -72 -74 -125 1 -92 58 -153 144 -153 42 0
84 18 102 44 4 6 8 -11 8 -37 0 -39 -5 -53 -25 -71 -14 -13 -37 -26 -51 -29
-37 -7 -91 10 -107 33 -11 16 -16 18 -31 7 -16 -11 -15 -14 5 -35 60 -66 184
-54 229 21 18 28 20 51 20 195 0 155 -1 162 -20 162 -13 0 -20 -7 -20 -20 0
-18 -2 -18 -36 5 -47 32 -100 33 -144 3z m146 -52 c39 -39 45 -86 19 -136 -19
-37 -43 -50 -93 -50 -111 0 -147 152 -50 207 43 23 87 16 124 -21z"/>
<path d="M7475 15732 c-16 -11 -36 -26 -43 -34 -21 -26 15 -32 45 -8 51 40
133 17 133 -37 0 -18 -10 -23 -67 -33 -85 -14 -118 -32 -132 -70 -29 -86 78
-144 167 -90 32 20 32 20 32 0 0 -13 7 -20 20 -20 19 0 20 7 20 121 l0 121
-34 34 c-40 40 -92 46 -141 16z m135 -156 c0 -84 -97 -139 -150 -86 -25 25
-25 32 -2 60 16 19 84 42 145 49 4 1 7 -10 7 -23z"/>
<path d="M7809 15729 c-49 -29 -72 -71 -72 -133 -1 -95 55 -156 143 -156 69 0
147 57 109 80 -8 6 -18 2 -26 -10 -20 -28 -74 -43 -109 -30 -42 16 -63 38 -73
78 -31 111 83 198 167 127 18 -15 37 -23 46 -19 42 16 -52 84 -116 84 -18 0
-49 -10 -69 -21z"/>
<path d="M8650 15742 c-61 -27 -93 -77 -93 -146 0 -63 29 -118 73 -141 61 -31
158 -12 189 36 19 32 -14 35 -50 5 -64 -54 -144 -23 -173 67 -5 16 5 17 115
17 138 0 144 4 113 78 -31 73 -111 112 -174 84z m107 -47 c11 -8 26 -28 31
-45 l11 -30 -100 0 c-112 0 -123 9 -72 62 21 22 36 28 68 28 22 0 50 -7 62
-15z"/>
<path d="M1840 15590 c0 -127 2 -150 15 -150 13 0 15 23 15 150 0 127 -2 150
-15 150 -13 0 -15 -23 -15 -150z"/>
<path d="M6550 15590 c0 -127 2 -150 15 -150 13 0 15 23 15 150 0 127 -2 150
-15 150 -13 0 -15 -23 -15 -150z"/>
<path d="M2608 15233 c-26 -7 -22 -23 6 -23 13 0 29 -7 36 -15 10 -13 10 -19
-4 -34 -23 -26 -2 -39 25 -15 46 41 1 103 -63 87z"/>
<path d="M8200 15133 c-25 -31 -27 -39 -14 -41 9 -2 27 6 40 19 l24 22 24 -22
c13 -13 32 -21 41 -19 14 2 12 9 -12 40 -37 48 -63 49 -103 1z"/>
<path d="M2507 15125 c-23 -29 -25 -35 -11 -35 10 0 28 10 41 22 l23 21 24
-22 c13 -13 31 -21 40 -19 13 2 11 9 -10 36 -35 44 -70 43 -107 -3z"/>
<path d="M1480 14935 c0 -177 2 -215 14 -215 11 0 15 24 18 109 3 99 6 112 27
135 24 26 61 33 96 20 32 -13 45 -59 45 -164 0 -93 1 -100 20 -100 19 0 20 7
20 105 0 122 -14 166 -59 189 -41 22 -77 20 -117 -5 l-34 -21 0 81 c0 65 -3
81 -15 81 -13 0 -15 -31 -15 -215z"/>
<path d="M5870 14935 c0 -184 2 -215 15 -215 8 0 15 9 15 20 0 25 2 25 42 0
69 -42 168 -17 204 52 25 46 23 131 -3 166 -51 70 -126 89 -196 52 -20 -11
-39 -20 -42 -20 -3 0 -5 36 -5 80 0 64 -3 80 -15 80 -13 0 -15 -31 -15 -215z
m218 25 c66 -66 36 -184 -53 -206 -31 -8 -90 19 -110 50 -34 51 -16 144 34
171 45 25 96 19 129 -15z"/>
<path d="M6910 14935 c0 -184 2 -215 15 -215 11 0 15 11 15 38 0 27 9 50 28
75 15 20 30 36 34 37 4 0 31 -34 60 -75 40 -56 59 -75 76 -75 22 0 20 6 -33
80 -31 44 -58 87 -61 95 -4 8 15 37 47 70 48 51 50 55 27 55 -18 0 -45 -21
-96 -74 -39 -40 -74 -71 -77 -68 -3 3 -5 65 -5 139 0 112 -2 133 -15 133 -13
0 -15 -31 -15 -215z"/>
<path d="M4912 15113 c-34 -94 -131 -361 -138 -376 -6 -15 -3 -18 16 -15 18 2
28 15 41 53 l17 50 98 0 97 0 17 -50 c13 -38 22 -51 39 -53 27 -4 33 -27 -58
223 -63 172 -72 190 -94 193 -19 2 -27 -3 -35 -25z m77 -136 c17 -49 31 -95
31 -103 0 -11 -17 -14 -75 -14 -53 0 -75 4 -75 13 0 29 74 218 81 205 4 -7 21
-53 38 -101z"/>
<path d="M5740 15110 c0 -20 5 -30 15 -30 10 0 15 10 15 30 0 20 -5 30 -15 30
-10 0 -15 -10 -15 -30z"/>
<path d="M7700 14930 l0 -210 115 0 c108 0 115 1 115 20 0 19 -7 20 -95 20
l-95 0 0 190 c0 183 -1 190 -20 190 -19 0 -20 -7 -20 -210z"/>
<path d="M8000 15110 c0 -20 5 -30 15 -30 10 0 15 10 15 30 0 20 -5 30 -15 30
-10 0 -15 -10 -15 -30z"/>
<path d="M3250 15072 c0 -20 -29 -52 -48 -52 -25 0 -11 -29 16 -32 l27 -3 5
-113 c5 -104 7 -115 29 -133 27 -22 81 -26 81 -6 0 7 -15 17 -32 22 l-33 10
-5 85 c-7 126 -4 142 28 138 19 -2 28 2 30 15 3 13 -3 17 -27 17 -26 0 -30 4
-33 32 -3 37 -38 55 -38 20z"/>
<path d="M1200 15008 c-55 -38 -73 -70 -73 -130 0 -98 54 -158 143 -158 69 0
147 57 109 80 -8 6 -18 2 -26 -10 -22 -31 -75 -43 -116 -26 -77 32 -96 136
-36 195 40 41 94 43 139 5 24 -21 34 -24 43 -15 16 16 0 39 -43 63 -47 25
-100 23 -140 -4z"/>
<path d="M2499 15009 c-49 -29 -73 -73 -73 -134 0 -96 57 -155 147 -155 52 0
96 20 116 51 18 30 -14 37 -44 9 -54 -51 -155 -26 -173 42 l-8 33 120 5 121 5
-3 33 c-8 107 -112 163 -203 111z m128 -34 c11 -8 26 -28 31 -45 l11 -30 -100
0 c-91 0 -99 2 -99 19 0 11 14 31 31 45 35 30 92 35 126 11z"/>
<path d="M2853 15009 c-28 -18 -33 -19 -33 -5 0 9 -7 16 -15 16 -13 0 -15 -23
-15 -150 0 -122 3 -150 14 -150 11 0 15 23 18 109 3 100 5 112 27 135 24 26
61 33 96 20 32 -13 45 -59 45 -164 0 -93 1 -100 20 -100 19 0 20 7 20 105 0
122 -14 166 -59 189 -41 22 -80 20 -118 -5z"/>
<path d="M3505 15013 c-20 -11 -30 -12 -33 -4 -2 6 -10 11 -18 11 -11 0 -14
-27 -14 -150 0 -127 2 -150 15 -150 12 0 15 18 15 100 0 131 18 170 81 170 12
0 19 7 19 20 0 24 -23 25 -65 3z"/>
<path d="M3705 15016 c-88 -39 -119 -163 -60 -240 45 -60 143 -76 205 -33 154
105 25 349 -145 273z m125 -46 c59 -42 63 -134 9 -186 -58 -55 -150 -29 -177
51 -34 104 81 197 168 135z"/>
<path d="M4067 15010 c-30 -24 -37 -25 -37 -5 0 8 -7 15 -15 15 -13 0 -15 -23
-15 -150 0 -122 3 -150 14 -150 11 0 15 23 18 109 3 100 5 112 27 135 30 32
78 34 112 7 22 -18 24 -27 27 -135 3 -106 5 -116 23 -116 18 0 19 8 19 105 0
69 -5 118 -14 140 -26 60 -109 84 -159 45z"/>
<path d="M4390 15008 c-52 -36 -72 -70 -73 -124 -1 -93 56 -154 143 -154 42 0
84 18 102 44 4 6 8 -9 8 -34 0 -25 -7 -55 -15 -67 -32 -46 -137 -48 -168 -3
-11 16 -16 18 -31 7 -16 -11 -15 -14 5 -35 60 -66 184 -54 229 21 18 28 20 51
20 195 0 155 -1 162 -20 162 -13 0 -20 -7 -20 -20 0 -18 -2 -18 -36 5 -47 32
-100 33 -144 3z m146 -52 c28 -28 34 -41 34 -77 0 -79 -67 -129 -139 -105 -89
29 -101 157 -19 203 43 23 87 16 124 -21z"/>
<path d="M5229 15009 c-47 -28 -71 -70 -72 -128 -1 -90 57 -151 145 -151 35 0
54 6 77 26 l31 26 0 -47 c0 -37 -5 -51 -26 -70 -38 -36 -101 -37 -147 -4 -36
26 -63 19 -45 -11 29 -47 130 -65 189 -35 60 32 69 62 69 243 0 155 -1 162
-20 162 -13 0 -20 -7 -20 -20 0 -18 -2 -18 -36 5 -45 31 -96 32 -145 4z m147
-53 c29 -29 34 -41 34 -79 0 -36 -6 -51 -29 -76 -55 -59 -158 -34 -180 43 -12
47 -3 82 31 116 43 44 98 42 144 -4z"/>
<path d="M5615 15013 c-20 -11 -30 -12 -33 -4 -2 6 -10 11 -18 11 -11 0 -14
-27 -14 -150 0 -127 2 -150 15 -150 12 0 15 17 15 94 0 133 19 176 79 176 14
0 21 6 21 20 0 24 -23 25 -65 3z"/>
<path d="M6305 15012 c-16 -11 -36 -26 -43 -34 -21 -26 15 -32 45 -8 51 40
133 17 133 -37 0 -18 -10 -23 -67 -33 -85 -14 -118 -32 -132 -70 -29 -86 78
-144 167 -90 32 20 32 20 32 0 0 -13 7 -20 20 -20 19 0 20 7 20 121 l0 121
-34 34 c-40 40 -92 46 -141 16z m135 -157 c0 -81 -98 -137 -149 -86 -21 21
-19 52 5 72 12 9 93 32 137 38 4 1 7 -10 7 -24z"/>
<path d="M6643 15010 c-19 -11 -32 -15 -30 -8 1 7 -6 14 -15 16 -17 3 -18 -9
-18 -147 0 -128 2 -151 15 -151 12 0 15 17 15 94 0 132 20 175 82 176 70 1 88
-34 88 -170 0 -93 1 -100 20 -100 19 0 20 7 20 105 0 122 -14 166 -59 189 -40
21 -79 20 -118 -4z"/>
<path d="M8210 15022 c-61 -27 -93 -77 -93 -145 -1 -99 54 -157 151 -157 46 0
57 4 90 34 32 30 35 35 19 42 -12 4 -26 -1 -40 -15 -62 -57 -177 -20 -177 58
0 19 8 21 118 23 l117 3 -3 33 c-3 48 -28 90 -65 112 -32 20 -87 25 -117 12z
m101 -42 c16 -9 49 -58 49 -75 0 -3 -45 -5 -100 -5 -92 0 -100 2 -100 19 0 11
14 31 31 45 33 28 85 34 120 16z"/>
<path d="M8547 15010 c-30 -24 -37 -25 -37 -5 0 8 -7 15 -15 15 -13 0 -15 -23
-15 -150 0 -122 3 -150 14 -150 11 0 15 23 18 109 3 100 5 112 27 135 30 32
78 34 112 7 22 -18 24 -27 27 -135 3 -106 5 -116 23 -116 18 0 19 8 19 105 0
69 -5 118 -14 140 -26 60 -109 84 -159 45z"/>
<path d="M1802 14899 l3 -121 33 -29 c37 -34 102 -40 140 -13 20 14 22 14 22
0 0 -9 9 -16 20 -16 19 0 20 7 20 150 0 143 -1 150 -20 150 -19 0 -20 -7 -20
-107 -1 -119 -7 -136 -58 -154 -23 -8 -37 -7 -54 2 -42 22 -47 39 -48 152 0
102 -1 107 -21 107 -20 0 -21 -4 -17 -121z"/>
<path d="M2109 14998 c95 -227 113 -280 101 -308 -16 -39 -32 -51 -69 -52 -23
-1 -31 -6 -31 -20 0 -14 8 -18 36 -18 57 0 82 35 162 232 40 97 72 179 72 182
0 3 -9 6 -19 6 -16 0 -29 -25 -67 -121 -26 -66 -50 -117 -55 -112 -4 4 -27 58
-51 118 -36 89 -48 111 -66 113 -20 3 -21 1 -13 -20z"/>
<path d="M5740 14870 c0 -127 2 -150 15 -150 13 0 15 23 15 150 0 127 -2 150
-15 150 -13 0 -15 -23 -15 -150z"/>
<path d="M8000 14870 c0 -127 2 -150 15 -150 13 0 15 23 15 150 0 127 -2 150
-15 150 -13 0 -15 -23 -15 -150z"/>
<path d="M7312 14874 c3 -15 35 -18 178 -14 11 0 20 7 20 15 0 12 -18 15 -101
15 -87 0 -100 -2 -97 -16z"/>
<path d="M2680 14413 c-25 -31 -27 -39 -14 -41 9 -2 27 6 40 19 l24 22 24 -22
c13 -13 32 -21 41 -19 14 2 12 9 -12 40 -37 48 -63 49 -103 1z"/>
<path d="M3740 14444 c0 -17 55 -74 72 -74 19 0 18 1 -3 40 -16 29 -29 40 -46
40 -13 0 -23 -3 -23 -6z"/>
<path d="M3370 14215 c0 -178 2 -215 14 -215 11 0 15 23 18 109 3 100 5 112
27 135 24 26 61 33 96 20 32 -13 45 -59 45 -164 0 -93 1 -100 20 -100 19 0 20
7 20 105 0 69 -5 118 -14 140 -15 36 -59 65 -100 65 -30 0 -76 -20 -76 -32 0
-5 -4 -6 -10 -3 -5 3 -10 40 -10 81 0 59 -3 74 -15 74 -13 0 -15 -31 -15 -215z"/>
<path d="M6392 14413 c-66 -32 -80 -123 -27 -173 13 -13 59 -35 102 -49 64
-21 80 -31 92 -55 12 -26 12 -33 0 -55 -42 -74 -141 -63 -202 21 -17 24 -42 8
-32 -21 12 -40 72 -74 134 -79 69 -5 113 14 136 58 42 81 0 133 -147 180 -41
13 -78 52 -78 82 0 32 45 68 85 68 45 0 92 -23 100 -50 3 -11 13 -20 20 -20
44 0 13 61 -46 91 -46 23 -93 24 -137 2z"/>
<path d="M6864 14420 c-25 -10 -74 -66 -74 -85 0 -22 28 -26 35 -5 10 33 54
60 96 60 52 0 79 -27 79 -79 0 -44 -6 -52 -132 -192 -43 -47 -78 -93 -78 -102
0 -15 16 -17 135 -17 128 0 135 1 135 20 0 18 -8 20 -105 22 l-105 3 81 90
c44 49 87 102 95 117 19 36 18 98 -2 126 -31 45 -105 64 -160 42z"/>
<path d="M4840 14211 c0 -204 1 -211 20 -211 19 0 20 7 20 165 0 91 3 165 8
165 4 0 58 -75 121 -165 78 -114 119 -165 132 -165 18 0 19 11 19 210 0 203
-1 210 -20 210 -19 0 -20 -7 -20 -167 0 -122 -3 -164 -11 -156 -6 6 -59 80
-119 165 -73 104 -114 154 -129 156 -21 3 -21 2 -21 -207z"/>
<path d="M5370 14417 c0 -2 -34 -96 -75 -208 -41 -112 -75 -205 -75 -207 0 -2
10 -2 22 0 16 2 26 16 38 53 l17 50 97 0 98 0 20 -52 c14 -40 24 -53 39 -53
24 0 30 -21 -60 225 -64 175 -71 190 -95 193 -14 2 -26 1 -26 -1z m71 -164
c16 -48 29 -93 29 -100 0 -10 -20 -13 -75 -13 -53 0 -75 4 -75 13 0 6 16 59
37 115 41 117 39 118 84 -15z"/>
<path d="M5630 14210 c0 -202 1 -210 20 -210 17 0 19 8 22 83 l3 82 80 5 c44
3 90 11 102 18 50 28 68 114 37 173 -22 44 -68 59 -174 59 l-90 0 0 -210z
m215 145 c17 -16 25 -35 25 -60 0 -25 -8 -44 -25 -60 -21 -22 -33 -25 -100
-25 l-75 0 0 85 0 85 75 0 c67 0 79 -3 100 -25z"/>
<path d="M6067 14378 c-16 -45 -121 -330 -133 -361 -6 -15 -3 -18 16 -15 18 2
27 15 40 53 l17 50 98 0 98 0 17 -50 c12 -37 22 -51 38 -53 12 -2 22 -1 22 1
0 5 -129 358 -145 400 -4 9 -17 17 -30 17 -18 0 -26 -9 -38 -42z m82 -121 c17
-49 31 -95 31 -103 0 -11 -17 -14 -75 -14 -53 0 -75 4 -75 13 0 29 74 218 81
205 4 -7 21 -53 38 -101z"/>
<path d="M7216 14279 c-58 -78 -106 -150 -106 -160 0 -17 9 -19 105 -19 115 0
109 4 107 -67 -1 -27 2 -33 18 -33 17 0 20 7 20 50 0 47 2 50 25 50 32 0 34
27 3 32 -22 3 -23 6 -26 146 -3 188 -6 188 -146 1z m108 49 c-1 -13 -3 -62 -3
-109 l-1 -87 -74 -1 c-41 -1 -77 3 -81 8 -6 11 146 221 156 215 3 -2 5 -13 3
-26z"/>
<path d="M7710 14405 c0 -12 18 -15 100 -15 57 0 100 -4 100 -10 0 -7 -151
-325 -177 -372 -2 -5 5 -8 16 -8 17 0 39 36 116 190 52 104 95 199 95 210 0
19 -6 20 -125 20 -104 0 -125 -2 -125 -15z"/>
<path d="M7546 14183 c-106 -259 -104 -253 -79 -253 19 0 34 32 200 438 13 31
12 32 -9 32 -20 0 -33 -25 -112 -217z"/>
<path d="M1963 14289 c-28 -18 -33 -19 -33 -5 0 9 -7 16 -15 16 -13 0 -15 -23
-15 -150 0 -127 2 -150 15 -150 12 0 15 16 15 88 0 98 11 148 37 168 26 19 77
17 104 -5 22 -18 24 -27 27 -135 3 -106 5 -116 23 -116 18 0 19 8 19 105 0
122 -14 166 -59 189 -41 22 -80 20 -118 -5z"/>
<path d="M2289 14289 c-47 -28 -71 -70 -72 -128 -1 -89 60 -151 148 -151 38 0
80 19 97 44 4 6 8 -11 8 -37 0 -39 -5 -52 -26 -72 -38 -36 -101 -37 -147 -4
-35 25 -63 19 -46 -10 31 -49 129 -67 190 -36 60 32 69 62 69 243 0 155 -1
162 -20 162 -13 0 -20 -7 -20 -20 0 -18 -2 -18 -36 5 -45 31 -96 32 -145 4z
m147 -53 c40 -40 46 -92 14 -143 -45 -75 -165 -54 -189 32 -12 46 -3 81 31
115 43 44 98 42 144 -4z"/>
<path d="M2665 14292 c-16 -11 -36 -26 -43 -34 -21 -26 15 -32 45 -8 51 40
133 17 133 -37 0 -18 -10 -23 -67 -33 -85 -14 -118 -32 -131 -70 -13 -35 -8
-56 21 -87 27 -30 98 -31 145 -3 32 20 32 20 32 0 0 -13 7 -20 20 -20 19 0 20
7 20 115 0 63 -5 125 -11 138 -24 53 -108 73 -164 39z m135 -163 c0 -41 -15
-66 -50 -84 -40 -21 -76 -19 -100 5 -25 25 -25 32 -2 60 16 19 84 42 145 49 4
1 7 -13 7 -30z"/>
<path d="M3003 14289 c-28 -18 -33 -19 -33 -5 0 9 -7 16 -15 16 -13 0 -15 -23
-15 -150 0 -127 2 -150 15 -150 12 0 15 16 15 88 0 98 11 148 37 168 26 19 77
17 104 -5 22 -18 24 -27 27 -135 3 -106 5 -116 23 -116 18 0 19 8 19 105 0
122 -14 166 -59 189 -41 22 -80 20 -118 -5z"/>
<path d="M3755 14292 c-16 -11 -36 -26 -43 -34 -21 -26 15 -32 45 -8 51 40
133 17 133 -37 0 -18 -10 -23 -67 -33 -85 -14 -118 -32 -132 -70 -21 -61 22
-110 97 -110 28 0 54 7 73 21 l29 20 0 -20 c0 -14 6 -21 20 -21 19 0 20 7 20
115 0 129 -9 157 -55 180 -44 20 -83 19 -120 -3z m135 -157 c0 -82 -98 -137
-150 -85 -25 25 -25 32 -1 61 17 21 63 36 144 48 4 1 7 -10 7 -24z"/>
<path d="M4103 14298 c-13 -6 -23 -15 -23 -20 0 -4 -4 -8 -10 -8 -5 0 -10 7
-10 15 0 8 -7 15 -15 15 -13 0 -15 -23 -15 -150 0 -122 3 -150 14 -150 11 0
15 23 18 109 3 100 5 112 27 135 24 26 61 33 96 20 32 -13 45 -59 45 -164 0
-93 1 -100 20 -100 19 0 20 7 20 105 0 69 -5 118 -14 140 -23 55 -96 80 -153
53z"/>
<path d="M4419 14289 c-48 -28 -73 -73 -73 -129 1 -88 59 -150 142 -150 46 0
79 13 99 39 10 13 12 8 13 -32 0 -39 -5 -52 -26 -72 -39 -36 -101 -38 -147 -4
-16 12 -35 18 -45 14 -13 -5 -11 -11 15 -37 40 -39 120 -50 172 -24 63 33 71
61 71 244 0 155 -1 162 -20 162 -13 0 -20 -7 -20 -20 0 -18 -2 -18 -36 5 -45
31 -96 32 -145 4z m147 -53 c40 -40 46 -92 14 -143 -32 -53 -113 -61 -161 -17
-49 44 -41 141 14 174 50 31 93 26 133 -14z"/>
<path d="M3891 13081 c-52 -49 -46 -72 79 -292 114 -201 144 -239 187 -239 52
0 76 28 191 230 134 237 139 263 62 314 -34 22 -74 20 -104 -6 -13 -13 -51
-70 -84 -127 l-60 -103 -62 107 c-35 59 -72 116 -83 126 -32 30 -88 25 -126
-10z"/>
<path d="M5780 13030 c0 -5 7 -10 15 -10 10 0 15 -11 15 -35 0 -19 5 -35 10
-35 6 0 10 16 10 35 0 24 5 35 15 35 8 0 15 5 15 10 0 6 -18 10 -40 10 -22 0
-40 -4 -40 -10z"/>
<path d="M5880 12995 c0 -25 5 -45 10 -45 6 0 10 10 10 22 0 21 0 21 14 2 15
-19 15 -19 30 1 15 20 15 20 16 -2 0 -12 5 -25 10 -28 6 -4 10 13 10 44 0 55
-14 66 -32 26 -6 -14 -14 -25 -18 -25 -4 0 -13 11 -20 25 -20 37 -30 30 -30
-20z"/>
<path d="M4493 12893 c-10 -3 -13 -46 -13 -163 0 -140 2 -159 17 -164 35 -14
43 20 43 169 0 154 -6 175 -47 158z"/>
<path d="M4605 12890 c-8 -13 -7 -294 1 -315 5 -12 26 -15 103 -15 103 0 125
7 119 36 -3 17 -14 19 -91 22 l-87 3 0 39 0 39 87 3 c77 3 88 5 91 22 6 28
-15 36 -100 36 l-78 0 0 40 0 39 88 3 c85 3 87 3 87 28 0 25 0 25 -107 28 -68
2 -109 -1 -113 -8z"/>
<path d="M4854 12885 c-12 -30 4 -45 46 -45 l40 0 0 -129 c0 -102 3 -131 15
-141 12 -10 18 -10 30 0 12 10 15 39 15 141 l0 129 39 0 c42 0 61 21 40 46
-17 21 -217 20 -225 -1z"/>
<path d="M5179 12877 c-63 -33 -89 -76 -89 -147 0 -69 26 -114 85 -147 35 -20
125 -33 125 -18 0 24 -27 54 -55 59 -96 18 -112 156 -24 202 68 35 149 -18
149 -96 0 -43 -15 -61 -25 -30 -5 15 -15 20 -41 20 -19 0 -34 -2 -34 -5 0 -3
19 -39 43 -80 39 -69 45 -75 75 -75 33 0 38 5 23 29 -7 10 -4 23 9 41 41 57
38 148 -7 201 -57 68 -156 87 -234 46z"/>
<path d="M5490 12725 l0 -165 35 0 34 0 3 138 3 137 33 -1 c66 -2 72 -5 88
-29 21 -33 5 -81 -24 -70 -24 10 -72 13 -77 5 -3 -4 21 -45 53 -91 53 -78 60
-84 95 -87 20 -2 37 1 37 6 0 5 -15 28 -33 52 l-32 43 32 32 c25 25 33 42 33
68 0 97 -44 127 -182 127 l-98 0 0 -165z"/>
<path d="M1960 11380 l0 -560 560 0 560 0 0 560 0 560 -560 0 -560 0 0 -560z
m960 0 l0 -400 -400 0 -400 0 0 400 0 400 400 0 400 0 0 -400z"/>
<path d="M2280 11380 l0 -240 240 0 240 0 0 240 0 240 -240 0 -240 0 0 -240z"/>
<path d="M3240 11700 l0 -240 80 0 80 0 0 80 0 80 160 0 160 0 0 -80 0 -80
160 0 160 0 0 -80 0 -80 80 0 80 0 0 80 0 80 -80 0 -80 0 0 80 0 80 160 0 160
0 0 -80 0 -80 160 0 160 0 0 -80 0 -80 -80 0 -80 0 0 -80 0 -80 -80 0 -80 0 0
-80 0 -80 -80 0 -80 0 0 80 0 80 -160 0 -160 0 0 80 0 80 -160 0 -160 0 0
-240 0 -240 -80 0 -80 0 0 80 0 80 -80 0 -80 0 0 -80 0 -80 80 0 80 0 0 -80 0
-80 -480 0 -480 0 0 -80 0 -80 -80 0 -80 0 0 -80 0 -80 -80 0 -80 0 0 160 0
160 -80 0 -80 0 0 -160 0 -160 80 0 80 0 0 -80 0 -80 -80 0 -80 0 0 -80 0 -80
80 0 80 0 0 -80 0 -80 -80 0 -80 0 0 -80 0 -80 320 0 320 0 0 -80 0 -80 -160
0 -160 0 0 -80 0 -80 160 0 160 0 0 -80 0 -80 -80 0 -80 0 0 -80 0 -80 -80 0
-80 0 0 80 0 80 -160 0 -160 0 0 -160 0 -160 320 0 320 0 0 80 0 80 80 0 80 0
0 -160 0 -160 -80 0 -80 0 0 -80 0 -80 -80 0 -80 0 0 -80 0 -80 -80 0 -80 0 0
80 0 80 -80 0 -80 0 0 -160 0 -160 80 0 80 0 0 -160 0 -160 -160 0 -160 0 0
-320 0 -320 80 0 80 0 0 160 0 160 80 0 80 0 0 -160 0 -160 240 0 240 0 0 80
0 80 80 0 80 0 0 -80 0 -80 80 0 80 0 0 80 0 80 -80 0 -80 0 0 80 0 80 160 0
160 0 0 160 0 160 80 0 80 0 0 -160 0 -160 80 0 80 0 0 -80 0 -80 -80 0 -80 0
0 -80 0 -80 -80 0 -80 0 0 -400 0 -400 80 0 80 0 0 -80 0 -80 80 0 80 0 0 -80
0 -80 80 0 80 0 0 -80 0 -80 80 0 80 0 0 80 0 80 80 0 80 0 0 -80 0 -80 240 0
240 0 0 80 0 80 80 0 80 0 0 -80 0 -80 160 0 160 0 0 80 0 80 80 0 80 0 0 -80
0 -80 960 0 960 0 0 80 0 80 -160 0 -160 0 0 80 0 80 80 0 80 0 0 160 0 160
80 0 80 0 0 -160 0 -160 80 0 80 0 0 80 0 80 80 0 80 0 0 -80 0 -80 80 0 80 0
0 -160 0 -160 160 0 160 0 0 80 0 80 -80 0 -80 0 0 80 0 80 80 0 80 0 0 80 0
80 -240 0 -240 0 0 80 0 80 80 0 80 0 0 80 0 80 -160 0 -160 0 0 80 0 80 240
0 240 0 0 -160 0 -160 80 0 80 0 0 320 0 320 -160 0 -160 0 0 80 0 80 80 0 80
0 0 80 0 80 80 0 80 0 0 400 0 400 -160 0 -160 0 0 80 0 80 -80 0 -80 0 0 80
0 80 80 0 80 0 0 80 0 80 80 0 80 0 0 -160 0 -160 80 0 80 0 0 320 0 320 -160
0 -160 0 0 -80 0 -80 -80 0 -80 0 0 -160 0 -160 -80 0 -80 0 0 240 0 240 80 0
80 0 0 80 0 80 240 0 240 0 0 640 0 640 -240 0 -240 0 0 -80 0 -80 160 0 160
0 0 -80 0 -80 -80 0 -80 0 0 -80 0 -80 -80 0 -80 0 0 80 0 80 -80 0 -80 0 0
160 0 160 -80 0 -80 0 0 -160 0 -160 -80 0 -80 0 0 80 0 80 -80 0 -80 0 0 80
0 80 -240 0 -240 0 0 160 0 160 80 0 80 0 0 -80 0 -80 80 0 80 0 0 160 0 160
-80 0 -80 0 0 80 0 80 80 0 80 0 0 80 0 80 -80 0 -80 0 0 80 0 80 80 0 80 0 0
80 0 80 -80 0 -80 0 0 -80 0 -80 -80 0 -80 0 0 160 0 160 -320 0 -320 0 0 -80
0 -80 160 0 160 0 0 -80 0 -80 -80 0 -80 0 0 -160 0 -160 -80 0 -80 0 0 160 0
160 -160 0 -160 0 0 80 0 80 80 0 80 0 0 80 0 80 -80 0 -80 0 0 -80 0 -80 -80
0 -80 0 0 80 0 80 -240 0 -240 0 0 -80 0 -80 240 0 240 0 0 -160 0 -160 -80 0
-80 0 0 -80 0 -80 -80 0 -80 0 0 160 0 160 -160 0 -160 0 0 160 0 160 -80 0
-80 0 0 -80 0 -80 -80 0 -80 0 0 80 0 80 -160 0 -160 0 0 -80 0 -80 80 0 80 0
0 -80 0 -80 -160 0 -160 0 0 80 0 80 -80 0 -80 0 0 80 0 80 -160 0 -160 0 0
-240z m3040 -160 l0 -80 80 0 80 0 0 -80 0 -80 -80 0 -80 0 0 80 0 80 -80 0
-80 0 0 -160 0 -160 80 0 80 0 0 -80 0 -80 -80 0 -80 0 0 -160 0 -160 80 0 80
0 0 -80 0 -80 80 0 80 0 0 -80 0 -80 80 0 80 0 0 -80 0 -80 -80 0 -80 0 0 -80
0 -80 80 0 80 0 0 -80 0 -80 -80 0 -80 0 0 80 0 80 -240 0 -240 0 0 -80 0 -80
80 0 80 0 0 -80 0 -80 80 0 80 0 0 -80 0 -80 -80 0 -80 0 0 80 0 80 -80 0 -80
0 0 80 0 80 -80 0 -80 0 0 -160 0 -160 80 0 80 0 0 -80 0 -80 80 0 80 0 0 -80
0 -80 80 0 80 0 0 80 0 80 80 0 80 0 0 -240 0 -240 -80 0 -80 0 0 80 0 80
-160 0 -160 0 0 160 0 160 -80 0 -80 0 0 80 0 80 -80 0 -80 0 0 -320 0 -320
80 0 80 0 0 -80 0 -80 -80 0 -80 0 0 -80 0 -80 80 0 80 0 0 -160 0 -160 -80 0
-80 0 0 160 0 160 -240 0 -240 0 0 -160 0 -160 80 0 80 0 0 80 0 80 80 0 80 0
0 -80 0 -80 -80 0 -80 0 0 -160 0 -160 80 0 80 0 0 80 0 80 80 0 80 0 0 -160
0 -160 -160 0 -160 0 0 80 0 80 -80 0 -80 0 0 80 0 80 -160 0 -160 0 0 80 0
80 80 0 80 0 0 80 0 80 -160 0 -160 0 0 160 0 160 -160 0 -160 0 0 80 0 80
-80 0 -80 0 0 240 0 240 80 0 80 0 0 80 0 80 80 0 80 0 0 80 0 80 -160 0 -160
0 0 80 0 80 -160 0 -160 0 0 -80 0 -80 80 0 80 0 0 -320 0 -320 -80 0 -80 0 0
-160 0 -160 80 0 80 0 0 -80 0 -80 160 0 160 0 0 -80 0 -80 -160 0 -160 0 0
-80 0 -80 -80 0 -80 0 0 80 0 80 -80 0 -80 0 0 -240 0 -240 80 0 80 0 0 80 0
80 80 0 80 0 0 -80 0 -80 80 0 80 0 0 80 0 80 80 0 80 0 0 80 0 80 160 0 160
0 0 -80 0 -80 -160 0 -160 0 0 -80 0 -80 80 0 80 0 0 -160 0 -160 80 0 80 0 0
-80 0 -80 -80 0 -80 0 0 -160 0 -160 80 0 80 0 0 80 0 80 80 0 80 0 0 -80 0
-80 160 0 160 0 0 80 0 80 -80 0 -80 0 0 160 0 160 -80 0 -80 0 0 80 0 80 -80
0 -80 0 0 80 0 80 160 0 160 0 0 -160 0 -160 80 0 80 0 0 -160 0 -160 160 0
160 0 0 80 0 80 -80 0 -80 0 0 80 0 80 80 0 80 0 0 -80 0 -80 80 0 80 0 0 -80
0 -80 -80 0 -80 0 0 -80 0 -80 -160 0 -160 0 0 -80 0 -80 -240 0 -240 0 0 -80
0 -80 160 0 160 0 0 -80 0 -80 80 0 80 0 0 80 0 80 80 0 80 0 0 80 0 80 80 0
80 0 0 -80 0 -80 -80 0 -80 0 0 -80 0 -80 160 0 160 0 0 160 0 160 160 0 160
0 0 -80 0 -80 -80 0 -80 0 0 -80 0 -80 160 0 160 0 0 -160 0 -160 -160 0 -160
0 0 -80 0 -80 -80 0 -80 0 0 160 0 160 -320 0 -320 0 0 -160 0 -160 -80 0 -80
0 0 80 0 80 -80 0 -80 0 0 160 0 160 -80 0 -80 0 0 -80 0 -80 -240 0 -240 0 0
160 0 160 -80 0 -80 0 0 -80 0 -80 -80 0 -80 0 0 -80 0 -80 80 0 80 0 0 -160
0 -160 -80 0 -80 0 0 80 0 80 -80 0 -80 0 0 160 0 160 80 0 80 0 0 80 0 80
-80 0 -80 0 0 320 0 320 80 0 80 0 0 80 0 80 -80 0 -80 0 0 80 0 80 80 0 80 0
0 80 0 80 -160 0 -160 0 0 80 0 80 -80 0 -80 0 0 -80 0 -80 -80 0 -80 0 0 -80
0 -80 -80 0 -80 0 0 80 0 80 80 0 80 0 0 80 0 80 -80 0 -80 0 0 80 0 80 -80 0
-80 0 0 -160 0 -160 -80 0 -80 0 0 160 0 160 -80 0 -80 0 0 80 0 80 80 0 80 0
0 80 0 80 80 0 80 0 0 -80 0 -80 80 0 80 0 0 80 0 80 160 0 160 0 0 -80 0 -80
-160 0 -160 0 0 -80 0 -80 240 0 240 0 0 -80 0 -80 80 0 80 0 0 240 0 240 -80
0 -80 0 0 80 0 80 160 0 160 0 0 80 0 80 -160 0 -160 0 0 80 0 80 80 0 80 0 0
80 0 80 -240 0 -240 0 0 -80 0 -80 -160 0 -160 0 0 160 0 160 80 0 80 0 0 80
0 80 -80 0 -80 0 0 80 0 80 -80 0 -80 0 0 80 0 80 -160 0 -160 0 0 160 0 160
80 0 80 0 0 -80 0 -80 80 0 80 0 0 -80 0 -80 80 0 80 0 0 160 0 160 -80 0 -80
0 0 80 0 80 80 0 80 0 0 80 0 80 160 0 160 0 0 -80 0 -80 -160 0 -160 0 0 -80
0 -80 160 0 160 0 0 -80 0 -80 80 0 80 0 0 80 0 80 80 0 80 0 0 160 0 160 160
0 160 0 0 -160 0 -160 -80 0 -80 0 0 -80 0 -80 80 0 80 0 0 -80 0 -80 80 0 80
0 0 240 0 240 240 0 240 0 0 80 0 80 -240 0 -240 0 0 80 0 80 80 0 80 0 0 160
0 160 80 0 80 0 0 -80 0 -80 80 0 80 0 0 80 0 80 80 0 80 0 0 -240 0 -240 80
0 80 0 0 240 0 240 80 0 80 0 0 -80 0 -80 80 0 80 0 0 240 0 240 80 0 80 0 0
-80 0 -80 80 0 80 0 0 160 0 160 80 0 80 0 0 -80 0 -80 80 0 80 0 0 -160 0
-160 80 0 80 0 0 -240 0 -240 160 0 160 0 0 80 0 80 -80 0 -80 0 0 160 0 160
80 0 80 0 0 80 0 80 -80 0 -80 0 0 160 0 160 80 0 80 0 0 80 0 80 80 0 80 0 0
-80z m-2400 -560 l0 -160 -80 0 -80 0 0 160 0 160 80 0 80 0 0 -160z m3360
-720 l0 -80 80 0 80 0 0 -80 0 -80 80 0 80 0 0 -160 0 -160 80 0 80 0 0 -80 0
-80 -80 0 -80 0 0 80 0 80 -80 0 -80 0 0 160 0 160 -160 0 -160 0 0 160 0 160
80 0 80 0 0 -80z m-320 -160 l0 -80 -80 0 -80 0 0 80 0 80 80 0 80 0 0 -80z
m320 -400 l0 -160 80 0 80 0 0 -80 0 -80 -80 0 -80 0 0 80 0 80 -160 0 -160 0
0 80 0 80 -80 0 -80 0 0 -160 0 -160 160 0 160 0 0 -80 0 -80 -80 0 -80 0 0
-80 0 -80 80 0 80 0 0 -80 0 -80 -160 0 -160 0 0 -80 0 -80 -80 0 -80 0 0
-240 0 -240 -80 0 -80 0 0 -80 0 -80 -240 0 -240 0 0 -80 0 -80 -80 0 -80 0 0
80 0 80 80 0 80 0 0 160 0 160 80 0 80 0 0 -80 0 -80 160 0 160 0 0 80 0 80
-80 0 -80 0 0 80 0 80 -80 0 -80 0 0 80 0 80 240 0 240 0 0 160 0 160 80 0 80
0 0 80 0 80 -80 0 -80 0 0 240 0 240 80 0 80 0 0 80 0 80 240 0 240 0 0 -160z
m-4000 -880 l0 -80 -160 0 -160 0 0 80 0 80 160 0 160 0 0 -80z m4000 -160 l0
-80 80 0 80 0 0 -80 0 -80 80 0 80 0 0 -80 0 -80 -80 0 -80 0 0 80 0 80 -80 0
-80 0 0 -240 0 -240 240 0 240 0 0 -160 0 -160 -160 0 -160 0 0 80 0 80 -80 0
-80 0 0 -160 0 -160 80 0 80 0 0 -160 0 -160 -80 0 -80 0 0 160 0 160 -160 0
-160 0 0 160 0 160 -80 0 -80 0 0 80 0 80 80 0 80 0 0 80 0 80 -80 0 -80 0 0
80 0 80 80 0 80 0 0 80 0 80 -80 0 -80 0 0 80 0 80 160 0 160 0 0 80 0 80 80
0 80 0 0 -80z m-4800 -800 l0 -80 80 0 80 0 0 -160 0 -160 -80 0 -80 0 0 80 0
80 -80 0 -80 0 0 160 0 160 80 0 80 0 0 -80z m4160 0 l0 -80 -160 0 -160 0 0
-80 0 -80 -80 0 -80 0 0 80 0 80 80 0 80 0 0 80 0 80 160 0 160 0 0 -80z
m-640 -160 l0 -80 -80 0 -80 0 0 80 0 80 80 0 80 0 0 -80z m800 -160 l0 -80
-80 0 -80 0 0 80 0 80 80 0 80 0 0 -80z m-480 -160 l0 -80 80 0 80 0 0 -80 0
-80 -80 0 -80 0 0 -80 0 -80 80 0 80 0 0 -80 0 -80 -80 0 -80 0 0 80 0 80 -80
0 -80 0 0 80 0 80 -80 0 -80 0 0 80 0 80 80 0 80 0 0 80 0 80 80 0 80 0 0 -80z
m800 -320 l0 -240 -240 0 -240 0 0 240 0 240 240 0 240 0 0 -240z m-640 -480
l0 -80 80 0 80 0 0 80 0 80 80 0 80 0 0 -80 0 -80 -80 0 -80 0 0 -80 0 -80
-80 0 -80 0 0 -80 0 -80 -80 0 -80 0 0 80 0 80 80 0 80 0 0 80 0 80 -80 0 -80
0 0 80 0 80 80 0 80 0 0 -80z m-1920 -320 l0 -80 -160 0 -160 0 0 80 0 80 160
0 160 0 0 -80z m960 0 l0 -80 -80 0 -80 0 0 80 0 80 80 0 80 0 0 -80z"/>
<path d="M5320 11060 l0 -80 -80 0 -80 0 0 -80 0 -80 -80 0 -80 0 0 -80 0 -80
-80 0 -80 0 0 -80 0 -80 80 0 80 0 0 80 0 80 80 0 80 0 0 -160 0 -160 80 0 80
0 0 -240 0 -240 -80 0 -80 0 0 80 0 80 -80 0 -80 0 0 160 0 160 -160 0 -160 0
0 -160 0 -160 -80 0 -80 0 0 80 0 80 -80 0 -80 0 0 -80 0 -80 -80 0 -80 0 0
-80 0 -80 80 0 80 0 0 80 0 80 80 0 80 0 0 -160 0 -160 80 0 80 0 0 -160 0
-160 -80 0 -80 0 0 -160 0 -160 -80 0 -80 0 0 -80 0 -80 80 0 80 0 0 80 0 80
160 0 160 0 0 -240 0 -240 80 0 80 0 0 320 0 320 -80 0 -80 0 0 80 0 80 80 0
80 0 0 80 0 80 80 0 80 0 0 80 0 80 80 0 80 0 0 -80 0 -80 160 0 160 0 0 80 0
80 -160 0 -160 0 0 80 0 80 160 0 160 0 0 80 0 80 -80 0 -80 0 0 160 0 160 80
0 80 0 0 80 0 80 -80 0 -80 0 0 160 0 160 80 0 80 0 0 80 0 80 -80 0 -80 0 0
80 0 80 -80 0 -80 0 0 -80z m160 -160 l0 -80 -80 0 -80 0 0 80 0 80 80 0 80 0
0 -80z m0 -480 l0 -80 -80 0 -80 0 0 80 0 80 80 0 80 0 0 -80z m-480 -720 l0
-160 -80 0 -80 0 0 160 0 160 80 0 80 0 0 -160z"/>
<path d="M6120 10340 l0 -160 160 0 160 0 0 80 0 80 -80 0 -80 0 0 80 0 80
-80 0 -80 0 0 -160z"/>
<path d="M5800 10260 l0 -80 80 0 80 0 0 80 0 80 -80 0 -80 0 0 -80z"/>
<path d="M2920 9940 l0 -80 -80 0 -80 0 0 -80 0 -80 80 0 80 0 0 -80 0 -80
160 0 160 0 0 80 0 80 -160 0 -160 0 0 80 0 80 80 0 80 0 0 80 0 80 -80 0 -80
0 0 -80z"/>
<path d="M3240 9940 l0 -80 160 0 160 0 0 -80 0 -80 80 0 80 0 0 -80 0 -80 80
0 80 0 0 80 0 80 -80 0 -80 0 0 80 0 80 -80 0 -80 0 0 80 0 80 -160 0 -160 0
0 -80z"/>
<path d="M2920 9300 l0 -80 80 0 80 0 0 80 0 80 -80 0 -80 0 0 -80z"/>
<path d="M3560 9300 l0 -80 80 0 80 0 0 -80 0 -80 80 0 80 0 0 80 0 80 -80 0
-80 0 0 80 0 80 -80 0 -80 0 0 -80z"/>
<path d="M5160 9140 l0 -240 80 0 80 0 0 -80 0 -80 80 0 80 0 0 320 0 320
-160 0 -160 0 0 -240z"/>
<path d="M3720 8660 l0 -80 80 0 80 0 0 80 0 80 -80 0 -80 0 0 -80z"/>
<path d="M3880 7860 l0 -80 -80 0 -80 0 0 -80 0 -80 80 0 80 0 0 -160 0 -160
-80 0 -80 0 0 -240 0 -240 80 0 80 0 0 240 0 240 80 0 80 0 0 -80 0 -80 160 0
160 0 0 -80 0 -80 80 0 80 0 0 80 0 80 -80 0 -80 0 0 160 0 160 80 0 80 0 0
80 0 80 -80 0 -80 0 0 -80 0 -80 -80 0 -80 0 0 160 0 160 -80 0 -80 0 0 80 0
80 -80 0 -80 0 0 -80z"/>
<path d="M4040 6900 l0 -80 80 0 80 0 0 -80 0 -80 80 0 80 0 0 80 0 80 -80 0
-80 0 0 80 0 80 -80 0 -80 0 0 -80z"/>
<path d="M4840 6580 l0 -80 80 0 80 0 0 80 0 80 -80 0 -80 0 0 -80z"/>
<path d="M5640 6580 l0 -80 80 0 80 0 0 80 0 80 -80 0 -80 0 0 -80z"/>
<path d="M7080 8500 l0 -80 80 0 80 0 0 80 0 80 -80 0 -80 0 0 -80z"/>
<path d="M6920 7860 l0 -80 80 0 80 0 0 80 0 80 -80 0 -80 0 0 -80z"/>
<path d="M6760 7060 l0 -80 80 0 80 0 0 80 0 80 -80 0 -80 0 0 -80z"/>
<path d="M6760 11380 l0 -560 560 0 560 0 0 560 0 560 -560 0 -560 0 0 -560z
m960 0 l0 -400 -400 0 -400 0 0 400 0 400 400 0 400 0 0 -400z"/>
<path d="M7080 11380 l0 -240 240 0 240 0 0 240 0 240 -240 0 -240 0 0 -240z"/>
<path d="M3240 11220 l0 -80 80 0 80 0 0 80 0 80 -80 0 -80 0 0 -80z"/>
<path d="M1960 6580 l0 -560 560 0 560 0 0 560 0 560 -560 0 -560 0 0 -560z
m960 0 l0 -400 -400 0 -400 0 0 400 0 400 400 0 400 0 0 -400z"/>
<path d="M2280 6580 l0 -240 240 0 240 0 0 240 0 240 -240 0 -240 0 0 -240z"/>
<path d="M3240 6100 l0 -80 80 0 80 0 0 80 0 80 -80 0 -80 0 0 -80z"/>
<path d="M7240 6100 l0 -80 80 0 80 0 0 80 0 80 -80 0 -80 0 0 -80z"/>
<path d="M3560 5341 c0 -32 5 -51 14 -54 8 -3 41 -37 75 -76 33 -39 64 -70 68
-69 5 2 7 6 6 10 -2 4 3 5 11 2 10 -4 12 2 8 23 -5 26 -4 27 14 13 17 -14 18
-13 7 1 -7 9 -10 19 -6 22 3 4 2 7 -3 7 -6 0 -16 -6 -22 -12 -10 -10 -12 -7
-10 12 2 14 10 28 18 32 12 5 12 7 -2 7 -15 1 -18 11 -18 66 l0 65 -80 0 -80
0 0 -49z"/>
<path d="M4197 5349 c-15 -9 -17 -28 -17 -157 l0 -147 90 90 c60 61 91 100 94
119 5 25 12 35 36 48 3 2 15 15 28 29 l23 27 -118 0 c-65 0 -126 -4 -136 -9z"/>
<path d="M4495 5331 c-65 -52 -105 -96 -105 -114 0 -10 18 -35 39 -55 22 -20
46 -49 53 -64 l14 -26 77 73 77 73 0 60 c0 34 -5 64 -11 68 -6 3 -34 7 -62 8
-41 1 -58 -4 -82 -23z"/>
<path d="M1898 5287 c-32 -8 -60 -16 -63 -19 -4 -4 -23 -100 -50 -265 l-6 -33
45 0 c39 0 46 3 51 23 6 27 35 199 35 208 0 10 55 19 78 12 31 -8 34 -28 17
-123 -22 -123 -22 -120 28 -120 l44 0 16 93 c24 133 23 178 -7 206 -30 28
-109 36 -188 18z"/>
<path d="M2214 5289 c-38 -9 -42 -13 -46 -44 l-4 -35 68 7 c48 4 72 2 83 -7
30 -25 16 -37 -47 -44 -99 -12 -138 -41 -138 -103 0 -80 99 -121 225 -94 29 6
30 10 47 96 31 161 21 205 -50 225 -43 12 -81 11 -138 -1z m99 -211 c-9 -51
-25 -63 -59 -46 -56 26 -38 78 27 78 38 0 38 0 32 -32z"/>
<path d="M2537 5286 c-26 -7 -49 -15 -51 -17 -2 -2 -18 -85 -35 -184 -17 -99
-34 -192 -37 -207 -5 -27 -4 -28 39 -28 49 0 52 3 62 73 l7 45 63 0 c102 -2
165 50 179 148 12 89 -23 154 -95 174 -43 13 -72 12 -132 -4z m113 -84 c40
-32 21 -134 -27 -153 -32 -12 -70 -12 -78 1 -10 17 16 144 33 158 22 17 46 15
72 -6z"/>
<path d="M2877 5290 c-45 -8 -45 -9 -53 -47 l-6 -30 71 5 c49 3 75 1 86 -8 27
-22 11 -33 -66 -46 -89 -15 -119 -42 -119 -105 0 -72 67 -107 183 -95 74 8 65
-6 92 148 22 122 17 144 -38 168 -43 20 -85 23 -150 10z m93 -186 c0 -6 -3
-25 -6 -42 -11 -55 -84 -49 -84 8 0 22 6 30 28 38 35 12 62 11 62 -4z"/>
<path d="M3193 5289 c-49 -14 -75 -54 -71 -108 3 -46 3 -46 66 -76 65 -31 76
-47 42 -65 -22 -12 -64 -5 -98 17 -28 18 -28 17 -37 -28 -6 -35 -5 -37 34 -53
108 -43 211 4 211 96 0 46 -21 69 -84 93 -77 29 -52 76 29 54 19 -5 37 -15 41
-21 9 -14 22 15 23 50 2 41 -80 63 -156 41z"/>
<path d="M4962 5253 c-5 -10 -38 -85 -72 -167 -51 -120 -69 -152 -93 -166
l-30 -19 34 -6 c19 -3 54 -1 79 4 25 5 35 9 24 10 -37 2 -47 24 -33 70 l12 41
73 0 74 0 15 -37 c20 -47 16 -66 -15 -74 -24 -6 -23 -6 10 -13 19 -4 53 -5 75
-2 22 2 47 5 55 5 9 1 5 6 -10 14 -29 14 -54 62 -125 235 -27 67 -53 122 -57
122 -4 0 -11 -8 -16 -17z m31 -145 c14 -31 23 -59 19 -62 -8 -9 -112 -7 -112
2 0 20 54 132 61 125 4 -4 19 -34 32 -65z"/>
<path d="M5305 5252 c-147 -69 -155 -274 -14 -344 40 -20 121 -23 185 -7 38
10 44 15 45 38 3 83 10 101 40 101 10 0 19 5 19 10 0 6 -35 10 -85 10 -84 0
-112 -12 -55 -23 29 -6 30 -9 30 -56 0 -39 -4 -53 -19 -61 -27 -14 -91 -12
-121 3 -62 31 -92 133 -65 223 18 62 51 94 102 101 55 7 97 -17 119 -67 10
-22 21 -40 26 -40 4 0 8 26 8 59 0 57 -1 58 -27 59 -16 0 -55 4 -88 7 -47 4
-69 2 -100 -13z"/>
<path d="M6070 5262 c0 -4 14 -13 30 -19 l30 -11 0 -145 c0 -80 -3 -152 -6
-161 -3 -9 -17 -16 -31 -16 -13 0 -21 -4 -18 -10 7 -12 165 -14 165 -2 0 4
-13 13 -30 19 l-30 11 0 149 c0 154 5 173 42 173 10 0 18 5 18 10 0 6 -35 10
-85 10 -47 0 -85 -4 -85 -8z"/>
<path d="M6871 5144 c-89 -189 -106 -218 -132 -231 -21 -11 -18 -13 36 -12 33
1 52 3 43 6 -10 2 -18 10 -18 16 0 7 8 31 18 54 l17 43 81 0 80 0 17 -35 c20
-42 22 -71 5 -78 -7 -3 19 -5 57 -6 47 0 63 3 50 9 -14 5 -46 62 -99 176 -43
93 -82 173 -86 178 -5 5 -36 -49 -69 -120z m86 -34 l31 -70 -70 0 c-38 0 -68
3 -66 8 35 79 62 132 67 132 4 0 21 -31 38 -70z"/>
<path d="M3760 5247 c0 -7 7 -22 14 -33 14 -18 16 -18 45 14 l30 32 -45 0
c-30 0 -44 -4 -44 -13z m40 -11 c0 -8 -4 -18 -10 -21 -5 -3 -10 -4 -10 -1 0 2
-3 11 -6 20 -4 11 -1 16 10 16 9 0 16 -6 16 -14z"/>
<path d="M5640 5251 c0 -5 10 -11 23 -13 22 -3 22 -6 25 -160 l3 -157 -26 -7
c-14 -3 -23 -10 -20 -14 4 -7 49 -8 130 -1 l30 2 -27 15 c-26 14 -28 19 -28
79 0 62 1 65 24 65 19 0 38 -19 87 -85 61 -83 64 -85 104 -85 54 0 63 10 26
30 -16 8 -54 46 -84 84 l-55 69 31 16 c74 38 86 113 24 152 -27 16 -51 19
-149 19 -66 0 -118 -4 -118 -9z m220 -31 c47 -47 8 -127 -68 -137 l-42 -6 0
82 0 81 45 0 c32 0 51 -6 65 -20z"/>
<path d="M6348 5250 c22 -9 22 -13 22 -169 l0 -160 -27 -15 c-26 -13 -22 -14
57 -14 46 -1 116 3 154 8 61 7 75 13 98 40 16 16 28 40 28 53 0 30 -26 66 -56
77 l-23 9 29 30 c34 33 38 65 14 100 -28 40 -73 51 -201 50 -81 0 -111 -3 -95
-9z m219 -26 c28 -18 39 -58 25 -89 -13 -28 -70 -48 -122 -43 l-35 3 -3 72
c-2 62 0 72 15 76 28 8 96 -2 120 -19z m-27 -154 c29 0 70 -46 70 -78 0 -54
-76 -93 -149 -77 l-31 7 0 73 c0 81 6 88 64 79 16 -2 36 -4 46 -4z"/>
<path d="M7170 5253 c62 -20 60 -13 60 -185 0 -131 -2 -158 -14 -158 -8 0 -17
-4 -20 -8 -2 -4 15 -8 40 -8 42 0 55 8 34 21 -6 4 -10 60 -10 138 l1 132 54
-60 c30 -33 90 -99 132 -147 43 -47 81 -87 86 -87 4 -1 7 78 7 174 0 173 0
176 23 185 16 6 5 9 -43 8 -41 0 -56 -3 -41 -7 15 -4 27 -17 31 -31 10 -39 5
-220 -6 -218 -5 2 -61 60 -124 130 l-114 128 -56 -1 c-30 0 -48 -3 -40 -6z"/>
<path d="M7650 5247 c25 -12 25 -15 28 -152 3 -152 -1 -185 -23 -185 -7 0 -16
-3 -18 -7 -5 -7 58 -10 106 -5 17 2 17 3 3 18 -12 11 -16 35 -16 85 0 38 4 69
8 69 5 0 43 -32 85 -71 62 -57 75 -74 66 -85 -6 -8 -10 -15 -8 -15 14 -6 159
-6 159 0 0 3 -17 14 -38 23 -20 10 -75 53 -122 98 l-85 80 75 70 c41 39 89 74
105 79 24 7 14 9 -45 9 -41 0 -67 -2 -57 -5 9 -2 17 -11 17 -18 0 -14 -138
-145 -152 -145 -10 0 -10 131 0 146 4 7 16 14 27 17 11 2 -16 5 -60 6 -71 1
-77 -1 -55 -12z"/>
<path d="M4267 5112 l-88 -88 3 -65 3 -64 65 -3 66 -3 64 64 c36 35 71 70 78
79 18 22 1 61 -46 105 -20 19 -37 40 -37 46 0 28 -28 10 -108 -71z"/>
<path d="M4573 5118 c-39 -40 -81 -92 -93 -115 -12 -23 -29 -45 -38 -47 -10
-3 -22 -16 -27 -28 -6 -12 -21 -25 -35 -29 -14 -4 39 -7 118 -8 108 -1 144 2
148 12 2 7 3 75 2 150 l-3 138 -72 -73z"/>
<path d="M3480 5050 l-85 -79 53 -1 c49 0 53 -2 47 -20 -10 -32 5 -44 26 -21
11 12 26 21 34 21 7 0 17 9 20 21 4 13 12 18 21 15 8 -3 12 -2 9 3 -3 6 0 13
8 18 7 4 23 21 35 37 12 16 22 24 22 17 0 -6 5 -11 11 -11 7 0 9 9 6 21 -3 12
-3 18 0 15 8 -8 33 27 27 36 -3 5 -38 8 -77 8 l-72 -1 -85 -79z"/>
<path d="M3665 5009 c-4 -6 -5 -12 -2 -15 2 -3 7 2 10 11 7 17 1 20 -8 4z"/>
<path d="M3615 4966 c-12 -13 -27 -26 -35 -30 -8 -3 -5 -4 8 -2 15 3 22 -1 22
-11 0 -25 23 -8 32 22 10 40 -2 49 -27 21z m15 -34 c0 -15 -2 -15 -10 -2 -13
20 -13 33 0 25 6 -3 10 -14 10 -23z"/>
<path d="M4385 3997 c-60 -29 -87 -57 -114 -117 -55 -122 -4 -271 114 -332 50
-26 147 -28 198 -3 77 36 127 118 127 208 l0 37 -110 0 -110 0 0 -30 0 -30 69
0 c39 0 72 -3 74 -7 10 -19 -16 -75 -48 -99 -72 -54 -183 -37 -231 36 -38 57
-43 141 -12 200 31 61 77 90 142 90 54 0 89 -17 123 -58 17 -21 21 -22 46 -11
31 14 33 21 11 55 -28 42 -98 76 -167 81 -51 3 -71 0 -112 -20z"/>
<path d="M4938 4005 c-98 -36 -158 -123 -158 -229 0 -105 57 -194 150 -234 46
-20 145 -18 198 3 52 21 114 90 130 143 30 101 -1 223 -72 277 -69 52 -170 69
-248 40z m189 -83 c78 -55 95 -186 35 -261 -92 -114 -261 -81 -303 59 -24 79
8 164 78 207 50 31 143 29 190 -5z"/>
<path d="M5520 4011 c-41 -13 -84 -38 -107 -63 -59 -63 -79 -179 -48 -269 57
-161 281 -206 389 -78 31 36 30 50 -5 63 -21 7 -30 3 -60 -27 -42 -42 -93 -55
-152 -37 -102 30 -147 156 -94 260 30 60 76 90 140 90 46 0 117 -29 117 -48 1
-24 18 -32 48 -21 38 13 39 21 10 61 -42 59 -158 93 -238 69z"/>
<path d="M2250 3770 l0 -240 35 0 35 0 1 93 c1 50 1 119 0 152 -1 33 2 65 7
72 5 8 46 -42 123 -150 104 -146 119 -162 147 -165 l32 -3 0 240 0 241 -35 0
-35 0 0 -160 c0 -88 -4 -160 -8 -160 -5 0 -60 72 -123 160 -107 149 -116 160
-146 160 l-33 0 0 -240z"/>
<path d="M2730 3771 l0 -241 35 0 34 0 3 101 3 100 113 2 112 2 0 -102 0 -103
40 0 40 0 0 209 c0 115 -3 223 -6 240 -6 27 -10 31 -40 31 l-34 0 0 -105 0
-105 -114 0 -113 0 -1 103 0 102 -36 3 -36 3 0 -240z"/>
<path d="M3210 3836 c0 -181 6 -214 43 -254 79 -86 248 -69 298 29 15 31 18
63 20 215 l1 179 -36 3 -36 3 0 -175 0 -176 -29 -32 c-26 -29 -35 -33 -80 -33
-42 0 -55 5 -78 28 l-28 27 -3 180 -3 180 -35 0 -34 0 0 -174z"/>
<path d="M3780 3770 l0 -240 35 0 35 0 1 123 c0 67 0 142 -1 166 -1 26 2 42 9
40 5 -2 61 -76 124 -164 102 -144 117 -160 145 -163 l32 -3 0 240 0 241 -35 0
-35 0 0 -160 c0 -88 -4 -160 -8 -160 -5 0 -60 72 -123 160 -107 149 -116 160
-146 160 l-33 0 0 -240z"/>
<path d="M5980 3770 l0 -240 35 0 35 0 1 133 c1 72 0 149 -1 170 -1 20 2 37 7
37 5 0 42 -45 82 -100 39 -55 74 -100 76 -100 2 0 37 45 77 101 l73 100 3
-170 2 -171 40 0 40 0 0 240 0 240 -37 0 c-37 0 -41 -4 -116 -110 -43 -61 -81
-108 -85 -106 -4 2 -41 52 -82 110 -72 101 -76 105 -112 106 l-38 0 0 -240z"/>
<path d="M6550 3771 l0 -241 38 0 37 0 -2 238 -1 237 -36 3 -36 3 0 -240z"/>
<path d="M6730 3770 l0 -240 35 0 35 0 1 93 c1 50 1 119 0 152 -1 33 2 65 7
72 5 8 46 -42 123 -150 104 -146 119 -162 147 -165 l32 -3 0 240 0 241 -35 0
-35 0 0 -160 c0 -88 -4 -160 -8 -160 -5 0 -60 72 -123 160 -107 149 -116 160
-146 160 l-33 0 0 -240z"/>
<path d="M7210 3771 l0 -241 35 0 34 0 3 101 3 100 113 2 112 2 0 -102 0 -103
40 0 40 0 0 209 c0 115 -3 223 -6 240 -6 27 -10 31 -40 31 l-34 0 0 -105 0
-105 -114 0 -113 0 -1 103 0 102 -36 3 -36 3 0 -240z"/>
<path d="M2360 3017 c-42 -22 -88 -84 -72 -98 14 -13 62 -20 62 -9 0 6 11 22
25 35 33 34 107 35 129 3 40 -57 22 -89 -151 -269 -39 -41 -65 -79 -69 -98
l-6 -31 161 0 161 0 0 30 0 30 -105 0 c-58 0 -105 3 -105 6 0 4 35 45 79 93
98 107 121 145 121 196 0 110 -122 169 -230 112z"/>
<path d="M3215 3027 c-40 -19 -90 -76 -106 -124 -18 -49 -17 -178 0 -223 36
-90 91 -131 177 -132 80 -1 141 47 170 136 23 67 15 196 -14 253 -44 85 -148
126 -227 90z m132 -81 c79 -66 68 -277 -16 -320 -43 -23 -75 -20 -110 9 -70
60 -76 238 -10 305 40 39 94 41 136 6z"/>
<path d="M3645 3026 c-69 -31 -106 -110 -85 -183 18 -64 58 -98 128 -111 l42
-7 -65 -85 c-36 -46 -65 -85 -65 -87 0 -2 18 -3 39 -3 38 0 43 4 112 92 89
113 116 160 124 218 7 53 -22 121 -67 154 -34 25 -122 31 -163 12z m133 -80
c33 -35 33 -95 0 -126 -64 -59 -153 -17 -150 71 2 76 99 111 150 55z"/>
<path d="M4035 3026 c-37 -16 -81 -60 -88 -87 -4 -15 1 -23 19 -30 36 -13 42
-12 49 11 16 52 114 71 147 30 23 -29 23 -67 -1 -105 -10 -16 -61 -75 -112
-129 -153 -161 -151 -166 56 -166 l155 0 0 30 0 30 -105 0 c-58 0 -105 3 -105
6 0 4 35 45 79 93 98 107 121 145 121 196 0 103 -112 166 -215 121z"/>
<path d="M4465 3027 c-40 -19 -90 -76 -106 -124 -18 -50 -18 -179 0 -223 36
-89 92 -132 170 -132 59 1 89 12 124 48 54 53 62 80 62 194 0 121 -18 168 -81
216 -42 33 -122 42 -169 21z m137 -84 c34 -37 48 -83 48 -157 0 -63 -23 -130
-53 -154 -9 -8 -33 -16 -55 -19 -31 -4 -44 0 -69 21 -40 34 -56 81 -55 167 1
114 40 169 117 169 32 0 47 -6 67 -27z"/>
<path d="M5295 3026 c-37 -16 -81 -60 -88 -86 -6 -22 -3 -25 35 -34 21 -5 28
-2 33 14 16 52 114 71 147 30 23 -28 23 -67 -1 -105 -10 -16 -64 -78 -120
-137 -73 -78 -101 -115 -101 -133 l0 -25 160 0 160 0 0 30 0 30 -105 0 c-58 0
-105 3 -105 6 0 4 35 45 79 93 98 107 121 145 121 196 0 102 -113 166 -215
121z"/>
<path d="M6438 3019 c-70 -36 -89 -130 -38 -184 l22 -23 -33 -30 c-31 -28 -34
-35 -34 -91 0 -55 3 -63 34 -95 53 -54 146 -66 218 -28 11 6 33 26 48 44 24
28 27 38 23 87 -4 46 -10 59 -37 83 l-33 30 22 23 c32 34 37 101 10 143 -38
60 -130 79 -202 41z m127 -64 c30 -30 31 -54 4 -89 -15 -19 -30 -26 -54 -26
-37 0 -75 37 -75 72 0 27 45 68 75 68 14 0 37 -11 50 -25z m23 -210 c51 -59
10 -135 -73 -135 -79 0 -121 69 -79 128 34 49 112 52 152 7z"/>
<path d="M6845 3026 c-37 -16 -81 -60 -88 -86 -6 -22 -3 -25 35 -34 21 -5 28
-2 33 14 16 52 114 71 147 30 21 -26 23 -62 6 -93 -6 -12 -60 -75 -120 -140
-75 -83 -108 -126 -108 -143 l0 -24 160 0 160 0 0 30 0 30 -105 0 c-58 0 -105
3 -105 6 0 3 32 40 71 82 130 140 155 204 109 280 -34 56 -126 79 -195 48z"/>
<path d="M7275 3026 c-40 -17 -90 -75 -106 -123 -18 -50 -18 -179 0 -223 37
-92 93 -133 179 -132 81 1 147 55 172 143 13 44 13 154 0 200 -32 113 -148
177 -245 135z m137 -83 c66 -72 65 -238 -2 -305 -55 -55 -143 -24 -171 60 -18
53 -14 162 6 206 23 48 50 66 100 66 32 0 47 -6 67 -27z"/>
<path d="M2771 2878 c-87 -120 -111 -160 -111 -185 l0 -33 115 0 115 0 0 -55
0 -55 35 0 35 0 0 55 c0 54 0 55 30 55 27 0 30 3 30 30 0 27 -3 30 -30 30
l-30 0 0 155 0 155 -39 0 c-39 0 -40 -1 -150 -152z m119 -53 l0 -105 -81 0
-81 0 42 58 c23 31 56 78 73 104 18 26 35 48 40 48 4 0 7 -47 7 -105z"/>
<path d="M4857 3008 c-3 -13 -11 -61 -17 -108 -6 -47 -13 -95 -15 -107 -8 -33
33 -40 76 -14 50 31 94 27 131 -9 27 -28 30 -36 25 -73 -10 -75 -78 -108 -147
-72 -16 8 -34 24 -40 34 -8 17 -14 18 -40 8 -37 -14 -37 -17 -4 -57 37 -44 77
-61 141 -61 161 0 225 200 93 289 -30 21 -44 23 -101 19 l-65 -4 7 46 c4 25 8
52 8 59 1 9 28 12 101 12 l100 0 0 30 0 30 -124 0 c-120 0 -124 -1 -129 -22z"/>
<path d="M5709 2927 c-97 -129 -112 -159 -112 -223 0 -97 66 -158 166 -156 96
2 166 84 153 177 -12 74 -55 115 -135 125 l-43 5 57 75 c32 41 62 81 68 88 7
9 -1 12 -34 12 l-44 0 -76 -103z m105 -159 c60 -55 21 -158 -59 -158 -51 0
-85 36 -85 90 0 80 86 120 144 68z"/>
<path d="M5978 3025 c-3 -3 -3 -17 0 -30 4 -25 5 -25 118 -25 l114 0 -105
-210 -105 -210 40 0 40 0 100 206 c66 136 100 219 100 240 l0 34 -148 0 c-82
0 -151 -2 -154 -5z"/>
<path d="M1230 1975 c0 -158 2 -185 15 -185 9 0 15 9 15 21 l0 20 26 -20 c37
-29 112 -29 149 1 31 24 55 74 55 114 0 80 -90 149 -164 124 -20 -6 -38 -16
-41 -21 -16 -25 -25 -2 -25 61 0 56 -3 70 -15 70 -13 0 -15 -27 -15 -185z
m194 14 c37 -44 36 -101 -3 -140 -74 -73 -184 5 -151 107 15 43 44 64 91 64
29 0 43 -7 63 -31z"/>
<path d="M2120 1975 c0 -158 2 -185 15 -185 11 0 15 11 15 38 0 29 7 45 29 66
l28 27 47 -65 c32 -44 54 -66 67 -66 21 0 11 17 -73 129 -17 23 -17 24 27 75
36 40 42 52 29 54 -10 3 -44 -23 -85 -64 l-69 -68 0 122 c0 102 -2 122 -15
122 -13 0 -15 -27 -15 -185z"/>
<path d="M2879 2137 c-163 -86 -104 -347 79 -347 59 0 113 25 133 62 19 35
-10 41 -41 8 -92 -99 -244 -8 -227 136 13 121 142 170 229 87 22 -21 31 -24
40 -15 9 9 6 18 -13 38 -52 57 -128 69 -200 31z"/>
<path d="M3170 1975 c0 -158 2 -185 15 -185 12 0 15 17 15 89 0 106 18 141 75
141 52 0 65 -27 65 -137 0 -88 1 -93 21 -93 20 0 21 4 17 104 -3 94 -5 107
-27 130 -32 33 -73 42 -112 22 -18 -9 -34 -16 -36 -16 -1 0 -3 29 -3 65 0 51
-3 65 -15 65 -13 0 -15 -27 -15 -185z"/>
<path d="M3920 1975 c0 -158 2 -185 15 -185 12 0 15 17 15 89 0 106 18 141 75
141 52 0 65 -27 65 -137 0 -88 1 -93 21 -93 20 0 21 4 17 105 -3 99 -5 106
-30 132 -34 34 -95 38 -127 9 l-21 -19 0 71 c0 57 -3 72 -15 72 -13 0 -15 -27
-15 -185z"/>
<path d="M4760 1975 c0 -158 2 -185 15 -185 12 0 15 17 15 89 0 106 18 141 74
141 55 0 66 -22 66 -133 0 -92 1 -97 21 -97 20 0 21 4 17 104 -3 94 -5 107
-27 130 -32 33 -73 42 -112 22 -18 -9 -34 -16 -36 -16 -1 0 -3 29 -3 65 0 51
-3 65 -15 65 -13 0 -15 -27 -15 -185z"/>
<path d="M6630 1975 c0 -158 2 -185 15 -185 12 0 15 17 15 89 0 106 18 141 74
141 55 0 66 -22 66 -133 0 -92 1 -97 21 -97 20 0 21 4 17 104 -3 94 -5 107
-27 130 -31 33 -72 41 -110 22 -16 -9 -32 -16 -36 -16 -3 0 -5 29 -5 65 0 51
-3 65 -15 65 -13 0 -15 -27 -15 -185z"/>
<path d="M409 2123 c-21 -56 -119 -325 -119 -329 0 -2 8 -4 18 -4 12 0 22 14
32 43 l15 42 86 3 86 3 13 -46 c9 -33 18 -45 32 -45 23 0 27 -17 -51 195 -48
133 -62 161 -80 163 -15 3 -24 -4 -32 -25z m68 -112 c17 -49 29 -92 25 -95 -3
-3 -34 -6 -70 -6 -47 0 -63 3 -60 13 3 6 18 49 34 95 16 45 31 82 34 82 3 0
19 -40 37 -89z"/>
<path d="M1120 2125 c0 -16 6 -25 15 -25 9 0 15 9 15 25 0 16 -6 25 -15 25 -9
0 -15 -9 -15 -25z"/>
<path d="M3450 2125 c0 -16 6 -25 15 -25 9 0 15 9 15 25 0 16 -6 25 -15 25 -9
0 -15 -9 -15 -25z"/>
<path d="M5126 2057 c1 -50 2 -131 3 -179 1 -71 4 -88 16 -88 12 0 15 16 15
85 l0 85 100 0 100 0 0 -85 c0 -78 2 -85 20 -85 19 0 20 7 20 180 0 173 -1
180 -20 180 -18 0 -20 -7 -20 -80 l0 -80 -100 0 -100 0 0 80 c0 70 -2 80 -17
80 -16 0 -18 -11 -17 -93z"/>
<path d="M5791 2128 c-39 -105 -121 -330 -121 -333 0 -3 8 -5 18 -5 12 0 22
14 32 43 l15 42 85 0 85 0 15 -42 c10 -30 20 -43 33 -43 22 0 25 -11 -53 200
-48 128 -61 156 -79 158 -14 2 -24 -4 -30 -20z m66 -117 c17 -49 29 -92 25
-95 -3 -3 -34 -6 -70 -6 -47 0 -63 3 -60 13 3 6 18 49 34 95 16 45 31 82 34
82 3 0 19 -40 37 -89z"/>
<path d="M6350 2135 c0 -11 12 -15 50 -15 l50 0 0 -165 c0 -140 2 -165 15
-165 13 0 15 25 15 165 l0 165 50 0 c38 0 50 4 50 15 0 12 -19 15 -115 15 -96
0 -115 -3 -115 -15z"/>
<path d="M6910 2125 c0 -16 6 -25 15 -25 9 0 15 9 15 25 0 16 -6 25 -15 25 -9
0 -15 -9 -15 -25z"/>
<path d="M7427 2143 c-2 -5 -2 -14 -1 -20 1 -7 2 -85 3 -173 1 -135 3 -160 16
-160 12 0 15 16 15 85 l0 86 98 -3 97 -3 3 -82 c3 -75 5 -83 22 -83 19 0 20 8
20 180 0 173 -1 180 -20 180 -18 0 -20 -7 -20 -80 l0 -80 -100 0 -100 0 0 80
c0 63 -3 80 -14 80 -8 0 -17 -3 -19 -7z"/>
<path d="M8772 2058 l63 -93 3 -87 c3 -67 7 -88 18 -88 11 0 14 19 14 86 0 82
1 87 38 142 21 31 48 74 61 95 21 35 21 37 4 37 -12 0 -35 -26 -67 -75 -27
-41 -51 -75 -55 -74 -3 0 -27 34 -53 75 -34 53 -53 74 -68 74 -18 0 -12 -13
42 -92z"/>
<path d="M700 2047 c-95 -33 -107 -184 -18 -233 36 -21 101 -17 132 7 l26 20
0 -36 c0 -51 -36 -85 -90 -85 -27 0 -47 7 -60 20 -15 15 -25 18 -37 12 -40
-23 68 -77 129 -65 39 8 88 58 89 91 0 15 2 82 3 150 1 111 0 122 -16 122 -10
0 -18 -7 -18 -16 0 -15 -2 -15 -23 -1 -34 22 -78 27 -117 14z m114 -58 c36
-43 35 -91 -3 -130 -71 -70 -182 2 -151 97 15 43 45 64 91 64 29 0 43 -7 63
-31z"/>
<path d="M1640 2053 c-35 -11 -59 -27 -65 -41 -9 -24 15 -32 36 -11 25 25 81
25 104 -1 27 -30 13 -47 -47 -55 -89 -12 -118 -35 -118 -90 0 -55 96 -88 146
-50 25 19 34 19 34 0 0 -8 7 -15 15 -15 12 0 15 18 15 101 0 55 -5 109 -11
121 -6 11 -26 26 -44 34 -36 15 -41 15 -65 7z m90 -152 c0 -11 -12 -33 -26
-50 -21 -25 -34 -31 -65 -31 -44 0 -62 21 -48 57 9 24 52 41 107 42 25 1 32
-3 32 -18z"/>
<path d="M1903 2041 c-27 -17 -33 -18 -33 -6 0 8 -7 15 -15 15 -13 0 -15 -21
-15 -130 0 -109 2 -130 15 -130 12 0 15 17 15 89 0 106 18 141 75 141 52 0 65
-27 65 -137 0 -88 1 -93 21 -93 20 0 21 4 17 105 -3 96 -5 107 -28 130 -35 35
-77 40 -117 16z"/>
<path d="M3705 2045 c-19 -10 -31 -12 -33 -6 -2 6 -10 11 -18 11 -11 0 -14
-25 -14 -130 0 -109 2 -130 15 -130 12 0 15 17 15 89 0 106 18 141 74 141 55
0 66 -22 66 -133 0 -92 1 -97 21 -97 20 0 21 4 17 105 -3 96 -5 107 -28 130
-33 32 -77 40 -115 20z"/>
<path d="M4280 2053 c-35 -11 -59 -27 -65 -41 -9 -24 15 -32 36 -11 25 25 81
25 104 -1 27 -30 13 -47 -47 -55 -89 -12 -118 -35 -118 -90 0 -55 96 -88 146
-50 25 19 34 19 34 0 0 -8 7 -15 15 -15 12 0 15 18 15 101 0 55 -5 109 -11
121 -6 11 -26 26 -44 34 -36 15 -41 15 -65 7z m90 -152 c0 -11 -12 -33 -26
-50 -21 -25 -34 -31 -65 -31 -44 0 -62 21 -48 57 9 24 52 41 107 42 25 1 32
-3 32 -18z"/>
<path d="M4543 2041 c-27 -17 -33 -18 -33 -6 0 8 -7 15 -15 15 -13 0 -15 -21
-15 -130 0 -109 2 -130 15 -130 12 0 15 17 15 89 0 106 18 141 75 141 52 0 65
-27 65 -137 0 -88 1 -93 21 -93 20 0 21 4 17 105 -3 96 -5 107 -28 130 -35 35
-77 40 -117 16z"/>
<path d="M6100 2053 c-8 -3 -23 -12 -32 -21 -16 -14 -18 -13 -18 1 0 10 -7 17
-15 17 -13 0 -15 -21 -15 -130 0 -109 2 -130 15 -130 12 0 15 17 15 89 0 106
18 141 74 141 55 0 66 -22 66 -133 0 -92 1 -97 21 -97 20 0 21 4 17 105 -3 96
-5 107 -28 130 -26 25 -73 39 -100 28z"/>
<path d="M8140 2053 c-8 -3 -23 -12 -32 -21 -16 -14 -18 -13 -18 1 0 10 -7 17
-15 17 -13 0 -15 -21 -15 -130 0 -105 3 -130 14 -130 11 0 15 22 18 94 4 108
19 136 73 136 54 0 65 -23 65 -133 0 -92 1 -97 21 -97 20 0 21 4 17 105 -3 96
-5 107 -28 130 -26 25 -73 39 -100 28z"/>
<path d="M8401 2043 c-89 -44 -95 -182 -9 -229 36 -21 101 -17 132 7 l26 20 0
-36 c0 -51 -36 -85 -90 -85 -27 0 -47 7 -60 20 -14 14 -26 18 -35 12 -13 -7
-12 -11 5 -30 46 -50 149 -47 190 5 18 23 20 40 20 174 0 126 -2 149 -15 149
-8 0 -15 -6 -15 -14 0 -11 -8 -10 -37 5 -45 23 -68 24 -112 2z m123 -54 c36
-43 35 -91 -3 -130 -55 -54 -144 -24 -152 51 -7 67 28 110 90 110 32 0 44 -6
65 -31z"/>
<path d="M9060 2043 c-48 -25 -72 -75 -67 -137 4 -42 10 -55 41 -83 30 -28 43
-33 85 -33 51 0 101 28 101 56 0 20 -24 17 -45 -6 -22 -24 -81 -27 -112 -5
-11 8 -26 28 -31 45 l-11 30 105 0 104 0 0 35 c0 26 -9 45 -32 70 -41 44 -88
54 -138 28z m85 -25 c27 -12 59 -60 48 -72 -4 -3 -42 -6 -85 -6 -69 0 -78 2
-78 18 0 26 48 67 82 71 4 1 19 -4 33 -11z"/>
<path d="M9380 2053 c-8 -3 -23 -12 -32 -21 -16 -14 -18 -13 -18 1 0 10 -7 17
-15 17 -13 0 -15 -21 -15 -130 0 -109 2 -130 15 -130 12 0 15 17 15 89 0 106
18 141 74 141 55 0 66 -22 66 -133 0 -92 1 -97 21 -97 20 0 21 4 17 105 -3 96
-5 107 -28 130 -26 25 -73 39 -100 28z"/>
<path d="M950 1920 c0 -105 3 -130 14 -130 11 0 15 22 18 101 3 109 14 129 65
129 14 0 23 6 23 15 0 19 -50 20 -69 3 -11 -10 -14 -10 -18 0 -3 6 -11 12 -19
12 -11 0 -14 -25 -14 -130z"/>
<path d="M1120 1920 c0 -109 2 -130 15 -130 13 0 15 21 15 130 0 109 -2 130
-15 130 -13 0 -15 -21 -15 -130z"/>
<path d="M3450 1920 c0 -109 2 -130 15 -130 13 0 15 21 15 130 0 109 -2 130
-15 130 -13 0 -15 -21 -15 -130z"/>
<path d="M6910 1920 c0 -109 2 -130 15 -130 13 0 15 21 15 130 0 109 -2 130
-15 130 -13 0 -15 -21 -15 -130z"/>
<path d="M7770 1965 c0 -93 16 -147 48 -164 30 -16 84 -13 110 5 20 14 22 14
22 0 0 -9 7 -16 15 -16 13 0 15 21 15 130 0 109 -2 130 -15 130 -12 0 -15 -17
-15 -89 0 -103 -19 -141 -71 -141 -55 0 -69 28 -69 135 0 88 -1 95 -20 95 -18
0 -20 -7 -20 -85z"/>
<path d="M2470 1925 c0 -12 16 -15 85 -15 69 0 85 3 85 15 0 12 -16 15 -85 15
-69 0 -85 -3 -85 -15z"/>
<path d="M7100 1925 c0 -12 15 -15 86 -15 64 0 85 3 82 13 -3 8 -32 13 -86 15
-68 2 -82 0 -82 -13z"/>
<path d="M5490 1815 c0 -18 5 -25 20 -25 15 0 20 7 20 25 0 18 -5 25 -20 25
-15 0 -20 -7 -20 -25z"/>
</g>
</svg>
