<?xml version="1.0" encoding="UTF-8"?>
<svg version="1.1" viewBox="0 0 2048 518" width="624" height="158" xmlns="http://www.w3.org/2000/svg">
<path transform="translate(0)" d="m0 0h2048v518h-2048z" fill="#D2D6DA"/>
<path transform="translate(216,18)" d="m0 0h58l79 1 2 2 1 4v106l-4 5-2 1h-6l-5-4-1-2v-95h-131v29l27-1h48l9 1 6 4 6 8 1 5v89l12-3 13-2 15-1h136l18 1 2 6v152l-3 3-3 1h-46v17l-3 6-8 7-5 1h-76v111l-4 5-2 1-28 1h-19v18l-7 8-7 3-54 1h-18l-48-1-8-2-5-5-2-6-1-82-1-41-4-6-4-3-7-1-113-1-7-3-7-6-1-5v-118l2-6 5-5 6-3h21v-38l2-6 4-3 3-1h102v-87l3-6 7-6 7-2h17l1-41 2-4z" fill="#0682F9"/>
<path transform="translate(688,77)" d="m0 0h12l19 1 20 4 15 6 11 7 10 8 11 11 9 12 9 15 7 15 6 19 3 18 1 21-2 32-4 22-5 17-7 16-8 15-13 17-10 10-15 10-19 9-14 4-9 2-23 2h-24l-18-2-19-7-17-9-13-10-10-10-10-14-9-17-8-24-4-20-2-17v-35l4-25 6-21 6-15 10-18 9-12 11-12 10-10 11-7 9-3 22-1 14-3z" fill="#2049A5"/>
<path transform="translate(216,18)" d="m0 0h58l79 1 2 2 1 4v106l-4 5-2 1h-6l-5-4-1-2v-95h-131l1 30-1 8v26l-1 78-1 3-8 2-41 1h-94v31l-1 96h140l4 2 1 3v143l132-1v-105l1-38 1-3 3-1 101-1 38-1v-80l1-45-150 1-19 3-18 5-14 6-12 7-10 8-10 9-7 7-10 13-12 21-10 19-3 2-6-1-5-5 1-7 8-18 8-15 10-14 11-13 8-8 17-13 22-12 21-8 18-4 23-2h136l18 1 2 6v152l-3 3-3 1h-46v17l-3 6-8 7-5 1h-76v111l-4 5-2 1-28 1h-19v18l-7 8-7 3-54 1h-18l-48-1-8-2-5-5-2-6-1-82-1-41-4-6-4-3-7-1-113-1-7-3-7-6-1-5v-118l2-6 5-5 6-3h21v-38l2-6 4-3 3-1h102v-87l3-6 7-6 7-2h17l1-41 2-4z" fill="#1F4AA7"/>
<path transform="translate(940,81)" d="m0 0h39l22 5 17 7 16 9 14 11 10 10 9 12 9 15 6 13 5 17 3 20v16l-4 28-5 19-6 17-10 19-9 12-14 15-11 9-12 9-17 8-23 8-9 2-19 2-18 1h-16l-41-1-12-3-3-5-1-11-1-26-1-64v-40l1-117 3-7 7-3 37-4z" fill="#2049A5"/>
<path transform="translate(1478,79)" d="m0 0h34l22 4 17 6 12 7 10 8 8 10 8 16 2 8v21l-5 14-9 13-7 7-10 7-8 5v3l16 9 10 8 11 11 8 14 4 13 2 13v7l-3 17-5 13-8 11-13 13-14 10-16 8-18 5-21 3-22 2h-42l-26-3-16-5-4-3-1-3v-22l2-51 1-11 2-47 1-4 2-43v-79l3-3 15-4 40-6z" fill="#2049A5"/>
<path transform="translate(1234,82)" d="m0 0h13l11 2 6 4 4 8 11 31 13 34 22 55 8 16 1 1 24 2 3 10 2 3v4l-5 3h-2l3 6-1 3h-11l9 29 14 36 10 21-1 9-5 4-4 1-22 1-14-1-11-3-6-4-4-7-1-8-5-8-6-17-5-13-2-10-3-8-14 1-39 3-19 5-21 2-5 5-11 27-8 19-5 8-2 2h-12l-24-3-10-4-2-2 1-8 18-45 5-17 4-24 3-5h7l10-23 6-12 5-16 12-31 25-75 4-6 9-3z" fill="#2049A5"/>
<path transform="translate(1741,78)" d="m0 0h21l14 2 15 4 12 6 5 4 7 10 7 14 3 14-2 6-8-1-22-6-19-4-9-1h-22l-17 4-16 8-10 8-6 9-1 2 1 9 5 10 7 6 12 6 28 10 25 10 16 8 15 10 12 11 8 10 8 16 5 16v15l-5 17-7 13-11 13-10 8-15 9-15 6-18 5-13 2h-31l-17-5-26-11-11-8-9-9-8-16-4-7v-5h6l17 9 9 6 10 4 14 2h12l21-3 20-6 13-7 9-7 6-7 3-8v-9l-4-8-5-5-10-7-16-8-40-14-22-11-12-9-7-6v-2h-2l-10-13-7-15-3-11v-15l4-16 5-10 10-13 6-7 14-11 16-9 20-7 19-4z" fill="#2049A6"/>
<path transform="translate(661,124)" d="m0 0h3l2 4 46 1 15 4 11 7 8 11 5 11 5 17 2 13 1 13v24l-2 19-3 14-6 17-8 14-9 10-9 8-16 8-13 3h-10l-16-3-12-5-8-6-7-8-9-16-6-15-4-15-1-10v-38l3-18 4-15 7-16 9-14 11-13z" fill="#D2D6DA"/>
<path transform="translate(22,213)" d="m0 0h21l1 1 1 97 1 15 143 1 2 147 5 1 107 1v19l-7 8-7 3-54 1h-18l-48-1-8-2-5-5-2-6-1-82-1-41-4-6-4-3-7-1-113-1-7-3-7-6-1-5v-118l2-6 5-5z" fill="#0683FA"/>
<path transform="translate(943,138)" d="m0 0h16l16 1 15 3 14 7 8 7 8 14 6 18 3 16v23l-4 22-6 18-6 11-9 11-11 8-12 5-17 4-6 1-24 1h-13l-5-1v-108l1-47 2-7 6-4 8-2z" fill="#D2D6DA"/>
<path transform="translate(1335,411)" d="m0 0 4 1-1 6-11 21-1 3h19v2l4 4v5l9-9 9-5 5 1 3 4v7l-1 4 9-7 7-1 4 2 2 4-1 9-3 12 7-2 3-13 4-8 8-9 9-5 6-1 5 3 1 2v8l-4 6-10 8-12 3 1 7 3 2h7l8-4 3-3 5-14 2-8 1-1h7l1 4v5l8-8 8-4h5l5 6 1 8-5 15 6-1 3-1 4-16 3-8-4-1v-2l5-1 9-19 7-9 3-2 4 1-1 6-12 23h18v4l-3 1h-13l-5-1-3 11-2 9v7l2 3h7l10-9 5-7 3-1-1 6-9 10-6 5-2 1h-11l-5-4-1-4-8 4-8-2-3-3 1-9 1-4v-7l-6 1-10 9-9 13-5 1-11 5-8 1-7-2-4-4-4 2-1 1h-9l-5-4-1-5 4-16-5 2-8 8-8 14h-7l-1-3 7-21v-4l-5 1-10 10-7 12-3 6-8-1-6 3h-10l-5-5v-3l-8 4-9-2-3-4 1-8 1-3v-8l-6 1-9 8-10 14-1 1-9 2-7 1-5-2-3-3-2-5-8-1-7 7-8 4-7-1-4-4-1-9h-2l-2 5-8 7-6 2h-12l1-3 12-4 5-2 5-10 1-8-3-5h-5l-8 6-6 10-9 33-4 9h-6l-1-3 6-18 5-20v-5l-5 9-4 5-8 5-4 1h-11v-3l10-3 8-5 5-10v-8l-2-3-7 1-8 7-4 7-5 17-6 21-3 5h-6l-1-3 4-11 4-12v-3l-5 3h-9l-3-2v-5l-10 8-8 2-5-3-3-5 1-10 6-11 9-10 9-5h9l5 3 2 3-1 7-1 1-2 10-4 9v3l7-1 4-4 3-16 3-17 4-1 4 2 1 5-2 8 10-8 4-2 9 1 5 6 2 3 2-14h8l1 2v11l3-1 1-3 6-4 9-1 6 4 2 4 1 9 5-7 8-2 3-6 5-4h8l4 4v10l-5 9v3h4l8-18 6-7h6l-1 7-8 16-1 3v9l9-2 4-10 4-15 1-1h7l1 4v5l8-8 8-4h5l6 7v7l-5 15 8-2 3-8 5-16-4-1v-2l6-2 6-14 7-11z" fill="#185EE2"/>
<path transform="translate(333,184)" d="m0 0h150v125l-1 1h-34l-1-84-5-8-6-4-120-1-7-4-4-6-2-8 1-5 15-4z" fill="#D2D6DA"/>
<path transform="translate(1560,399)" d="m0 0 4 1 2 4v7l-4 12-7 12-7 8-5 4-4 9-1 5v15l3 3 6-2 5-5 1-3-5-2-3-5v-9l3-5 3-3h7l4 4 1 9-2 10 5-1 4-12 6-7 7-2 3-6 5-3h7l4 4 1 2v7l-4 8-2 5 5-1 5-10 4-4 7-2 4-6 4-3 5-1 5 3 2 5-1 8-4 8v3l5-1 7-24 9-19 12-17 4-3 4 1 2 4v7l-4 10-6 9-11 10-4 8-2 10 1-1 6-11 7-7 4-2h8l5 5 2 5-1 5-4 6-9 4h-2l3 7 3 4h7l2-5 5-17 6-10 4-3h5l1 4-8 16-3 7 1 7 4 1 4-2 5-12 3-13 1-1h8v9l7-7 10-5 6 1 4 5v10l-4 13 7-2 3-12 5-8 7-7 10-5 8-1 5 3 2 8-5 17-3 8 7-4 7-9 3-3h2l-1 6-7 9-11 7-5 8-6 11-4 5-5 3h-5l-5-4-1-5 3-6 8-7 9-5 4-5 2-6-10 7-2 1h-8l-4-3-5 4-9-1-4-3v-9l2-10-1-2-5 1-5 4h-2l-2 4-6 8-5 7-9 2-3 1h-7l-5-4-4 2-2 2h-9l-5-4-5-10 1-5 10-5 2-2v-5l-1-1h-6l-5 5-6 9-7 16-5 2-3-2v-9h-12l-2 4-6 5-6 2-7-1-4-5-1-4-7-1-7 7-5 3-8 1-6-4-1-1-9-1-2 4-5 5-7 3h-7l-6-4-3-6v-11l4-16 8-20 9-16 8-10z" fill="#175FE3"/>
<path transform="translate(910,396)" d="m0 0 4 1-1 6-15 32-6 16-2 9v10l8-4 5-12 4-5 8-2 4-7 4-3h8l4 4v10l-5 10v2l5-1 6-12 4-5 10-6h7l6 3 5-1 9-19 8-10 5-1 1 5-13 25h17l2 1v3l-3 1h-18l-5 15-1 11 2 3h7l6-4 5-15 6-8 7-2 4-6 4-3h8l4 4v9l-5 10-1 4 6-1 3-9 4-10 1-10 2-4 6-1-1 8 8 6 3 4v8l-6 16 7-1 10-9 4-5h3l-1 5-7 8-6 5-5 2-9-1-5-5 2-9 4-11-1-5-4-1-3 8-2 9-5 6-8 1h-4l-9 8-6 2h-5l-4-4v-2l-5 5-5 3-8 1-6-3-3-4v-2l-9 7-9 2-9-3-4-6-1-5h-8l-8 7-5 3-8 1-5-4-1-4-6 5h-10l-3-3v-10l-5 4-6 7-4 2h-9l-5-5-1-7 4-9 4-6 8-9 9-5h9l4 2 1-6 12-26 5-7z" fill="#185EE2"/>
<path transform="translate(1455,241)" d="m0 0 7 6 1 1 50 1 17 3 9 6 5 8 1 3v11l-4 10-5 6-14 9-15 6-15 4-12 2h-28l-1-1 2-61 1-11z" fill="#D2D6DA"/>
<path transform="translate(719,396)" d="m0 0 3 1 2 5v8l-3 10-5 12-8 12-8 9-4 4-1 3v10l1 3 7-1 3-6 3-12 7-13 4-3h5l1 3-9 19-2 6 1 6 3 1 5-2 4-9 5-16 1-1h7l1 8 8-7 8-4 5 1 4 4 1 2v9l-3 9v4l6-2 3-8 6-12 8-8 8-4 5-1 5 2 2 3v8l-7 9-10 6-3 1h-7l1 7 3 3h8l10-6 6-7 3-5 4 1-2 6-5 7-8 6-6 3-9 1-8-3-3-4v-2l-7 4-8-1-4-4 1-10 1-9-4-1-6 4-7 7-8 12-1 1-9 2-9 1-5-3-2-2-5 5h-11l-3-3-1-3-8 4-8-1-4-4v-7l2-7v-5l-5-1-9 7-10 14-2 3h-6l-2-1 3-10 4-11 2-7 1-1h7l1 8 8-7 8-4 5 1 4 4 1 2v9l-4 13 5-1 5-5 4-17 6-16 8-16 10-15z" fill="#185EE2"/>
<path transform="translate(1475,132)" d="m0 0h38l13 4 8 5 3 5v9l-5 9-8 8-11 7-14 6-22 7-16 4h-3l-1-5 2-36 2-19 4-3z" fill="#D2D6DA"/>
<path transform="translate(171,64)" d="m0 0h18v102h-28l-7-1v-87l3-6 7-6z" fill="#0682F9"/>
<path transform="translate(327,358)" d="m0 0h10l1 1v99l-6 1-28-1-1-9v-65l1-15 6-7 8-3z" fill="#D2D6DA"/>
<path transform="translate(356,327)" d="m0 0h138v1h-46v17l-3 6-8 7-5 1h-76l-1-1v-30z" fill="#0682F9"/>
<path transform="translate(1941,411)" d="m0 0h4l-1 7-10 19-2 5h19l-1 3-15 1h-5l-5 15-1 9 2 5h7l6-4 5-16 7-10 10-7 8-2 5 3 2 3v6l-4 6-9 8-13 4v6l1 3h10l9-5 4-8 4-13 5-4 4 1v7l5-5 7-6 6-3 5 1 3 4v10l8-6 8-1 5 5-1 11-2 6 1 5 4-2 11-14h1v7l-9 11-3 2h-9l-5-4v-8l3-13-5 2-3 1-2 4-6 8-5 9h-7l-1-2 7-21 1-6-6 2-9 9-11 18-4 1-1-3-11 5-8 1-7-2-6-5-6 5-9 2-7-3-5-8 4-16 3-9-4-1v-2l6-2 9-19 7-9z" fill="#185EE2"/>
<path transform="translate(910,396)" d="m0 0 4 1-1 6-15 32-6 16-2 9v10l8-4 5-12 4-5 8-2 4-7 4-3h8l4 4v10l-5 10v2l4 1v3h-7l-8 7-5 3-8 1-5-4-1-4-6 5h-10l-3-3v-10l-5 4-6 7-4 2h-9l-5-5-1-7 4-9 4-6 8-9 9-5h9l4 2 1-6 12-26 5-7z" fill="#185EE2"/>
<path transform="translate(62,184)" d="m0 0h92v10l-2 9-6 7-8 3h-76z" fill="#D2D6DA"/>
<path transform="translate(1505,411)" d="m0 0 4 1-1 6-12 23h18v4l-3 1h-13l-5-1-3 11-2 9v7l2 3h7l10-9 5-7 3-1-1 6-9 10-6 5-2 1h-11l-5-4-1-4-8 4-8-2-3-3 1-9 1-4v-7l-6 1-10 9-9 13-5 1-11 5-8 1-7-2-4-4-4-1 2-13 5-10 8-9 9-5 6-1 5 3 1 2v8l-4 6-10 8-12 3 1 7 3 2h7l8-4 3-3 5-14 2-8 1-1h7l1 4v5l8-8 8-4h5l5 6 1 8-5 15 6-1 3-1 4-16 3-8-4-1v-2l5-1 9-19 7-9z" fill="#185EE2"/>
<path transform="translate(1134,434)" d="m0 0 6 1 2 6-2 8 10-8 4-2 9 1 5 6 2 3h1v11l-2-2-5 9-4 5-8 5-4 1h-11v-3l10-3 8-5 5-10v-8l-2-3-7 1-8 7-4 7-5 17-6 21-3 5h-6l-1-3 4-11 4-12v-3l-5 3h-9l-3-2v-5l-10 8-8 2-5-3-3-5 1-10 6-11 9-10 9-5h9l5 3 2 3-1 7-1 1-2 10-4 9v3l7-1 4-4 3-16 3-17z" fill="#185EE2"/>
<path transform="translate(1236,169)" d="m0 0 2 1 8 23 6 16 9 19v5l-7 5-9 3-35 5-6 1 3-10 19-46 9-21z" fill="#D2D6DA"/>
<path transform="translate(1902,433)" d="m0 0 4 1 2 12 4 15 1 10-7 7-6 3-9-1-6-4-4-4-1 3-8 5-10 18-7 6-6 1-6-4v-7l4-6 9-6 6-3 5-8 2-5-10 8-2 1h-6l-7-4 1-11 4-12 4-6h7l-1 7-4 12v8l5-2 8-7 5-13 2-2h5l1 4-7 24 7-2 1-8 12-14 4-6 3-9z" fill="#185EE2"/>
<path transform="translate(621,396)" d="m0 0h7v4l-10 4-6 5h-2l-2 4-7 9-8 16-3 12v15l3 8 4 4 3 1h7l8-4 8-8 6-10 4-11 3-15v-17l-2-6h-4l-7 11-4 10-3 1-4-3v-6l6-10 11-9h6l5 5 3 9v18l-3 14-7 16-11 12-9 6-5 2h-13l-8-5-6-8-3-9v-10l4-16 7-14 7-9 5-5 7-6 8-4z" fill="#185EE2"/>
<path transform="translate(1040,429)" d="m0 0h4l-1 8 8 6 3 4v8l-6 16 7-1 10-9 4-5h3l-1 5-7 8-6 5-5 2-9-1-5-5 2-9 4-11-1-5-4-1-3 8-2 9-5 6-8 1h-4l-9 8-6 2h-5l-4-4v-2l-5 5-2 1v-2l-3-1 6-4 5-15 6-8 7-2 4-6 4-3h8l4 4v9l-5 10-1 4 6-1 3-9 4-10 1-10 2-4z" fill="#175FE2"/>
<path transform="translate(1560,399)" d="m0 0 4 1 2 4v7l-4 12-7 12-7 8-5 4-4 9-1 5v15l3 3 6-2 5-5 1-3-5-2-3-5v-9l3-5 3-3h7l4 4 1 9-2 10 5 1-1 3h-7l-2 4-5 5-7 3h-7l-6-4-3-6v-11l4-16 8-20 9-16 8-10z" fill="#185EE2"/>
<path transform="translate(1172,435)" d="m0 0h8l1 2v11l3-1 1-3 6-4 9-1 6 4 2 4v8l-5 13-9 8-6 2h-12l1-3 12-4 5-2 5-10 1-8-3-5h-5l-8 6-6 10-9 33-4 9h-6l-1-3 6-18 6-23 1-19z" fill="#185DE2"/>
<path transform="translate(1591,437)" d="m0 0h7l4 4 1 2v7l-4 8-2 5 3 2v2h-6l-7 7-5 3-8 1-6-4-3-3 1-4 4-12 6-7 7-2 3-6z" fill="#1760E3"/>
<path transform="translate(1902,433)" d="m0 0 4 1 2 12 4 15 1 10-7 7-6 3-9-1-6-4-4-4-1 3-3 1-1-3 5-2 1-8 12-14 4-6 3-9z" fill="#185EE2"/>
<path transform="translate(1831,433)" d="m0 0 4 1 2 13 4 14 2 10-10 8-4 2h-7l-6-3-4-5-2-4 1-7 7-7 7-9 5-12z" fill="#1760E3"/>
<path transform="translate(1040,429)" d="m0 0h4l-1 8 8 6 3 4v8l-6 16 7-1 10-9 4-5h3l-1 5-7 8-6 5-5 2-9-1-5-5 2-9 4-11-1-5-4-1-3 8-2 9-5 6-8 1 4-1v-2l-3-1 5-1 3-9 4-10 1-10 2-4z" fill="#185EE2"/>
<path transform="translate(958,443)" d="m0 0 4 1v5l-3 7 5-2 3-9h5l-1 7-5 16-7 6-4 2h-8l-4-5 1-9 6-12z" fill="#D2D6DA"/>
<path transform="translate(955,439)" d="m0 0h7l6 3 4 1v2h-5l-1 7-3 4h-4l1-6 1-1v-5l-5 1-7 8-5 12v6l3 4h8l8-5 4 1-7 7-9 3-9-2-5-5-3-7 1-5 6-12 4-5z" fill="#1661E4"/>
<path transform="translate(1324,445)" d="m0 0 19 1-5 12-4 13-6 5h-8l-3-4v-7l5-17z" fill="#D2D6DA"/>
<path transform="translate(1112,441)" d="m0 0 5 2 1 1v6l-10 14-9 10-2 2-5-1v-7l4-11 6-9 7-6z" fill="#D2D6DA"/>
<path transform="translate(880,438)" d="m0 0 7 1-5 13-7 10-10 8h-4v-11l6-12 9-8z" fill="#D2D6DA"/>
<path transform="translate(1776,441)" d="m0 0h5v4l-4 9-6 9-9 7-4-1v-8l4-9 7-8z" fill="#D2D6DA"/>
<path transform="translate(718,407)" d="m0 0 1 4-6 15-9 16-4 5-2-1 4-11 8-15 6-11z" fill="#D2D6DA"/>
<path transform="translate(1966,441)" d="m0 0 4 1 1 2-3 6-7 7-10 4-1-2 7-11 7-6z" fill="#D2D6DA"/>
<path transform="translate(799,441)" d="m0 0 4 1-1 6-6 7-8 5-5 1 1-6 11-12z" fill="#D2D6DA"/>
<path transform="translate(1221,451)" d="m0 0 3 3 1 7 3 1-1 4-7 6-5-1v-10l4-9z" fill="#D2D6DA"/>
<path transform="translate(1006,451)" d="m0 0 3 1 3 10h2l-1 4-6 6h-5l-1-1v-9l4-10z" fill="#D2D6DA"/>
<path transform="translate(913,451)" d="m0 0h3l3 9 2 2-1 4-6 6h-5l-1-2v-7l4-11z" fill="#D2D6DA"/>
<path transform="translate(1426,441)" d="m0 0 4 2-1 5-7 8-7 4h-5l3-7 9-10z" fill="#D2D6DA"/>
<path transform="translate(1616,451)" d="m0 0 3 2 4 9 1 2-7 8h-5l-1-1v-10l4-9z" fill="#D2D6DA"/>
<path transform="translate(1581,451)" d="m0 0 3 1 3 9 2 3-5 6-3 2-5-1v-10l4-9z" fill="#D2D6DA"/>
<path transform="translate(1900,448)" d="m0 0 2 3 2 17-6-1-7-5 2-5z" fill="#D2D6DA"/>
<path transform="translate(1828,448)" d="m0 0 3 3 1 9v9l-7-3-4-3v-5z" fill="#D2D6DA"/>
<path transform="translate(1038,441)" d="m0 0 4 2-2 1-3 8-2 9-5 6-8 1 4-1v-2l-3-1 5-1 3-9 5-11z" fill="#1465E7"/>
<path transform="translate(1019,441)" d="m0 0 5 2-1 7-4 9h-3l-2-5v-8z" fill="#D2D6DA"/>
<path transform="translate(1233,441)" d="m0 0 4 1 1 6-5 11h-3l-2-5v-8z" fill="#D2D6DA"/>
<path transform="translate(926,441)" d="m0 0 4 1 1 5-4 10-3 3-3-6v-7l3-5z" fill="#D2D6DA"/>
<path transform="translate(1594,441)" d="m0 0 4 2v7l-5 10-3-3-1-2v-10z" fill="#D2D6DA"/>
<path transform="translate(1628,441)" d="m0 0 4 1 1 1-1 9-4 8-3-2-2-9 3-6z" fill="#D2D6DA"/>
<path transform="translate(729,418)" d="m0 0 7 1-1 7-4 3-7-1-1-1v-5z" fill="#175FE2"/>
<path transform="translate(1705,418)" d="m0 0h5l2 2-1 6-5 3-6-1-2-4 5-5z" fill="#1760E3"/>
<path transform="translate(1559,410)" d="m0 0h1l-1 8-7 13-6 7h-1v-5l11-19z" fill="#D2D6DA"/>
<path transform="translate(1265,418)" d="m0 0 6 1 1 3-3 5-3 2-7-1-1-5 5-4z" fill="#1661E4"/>
<path transform="translate(1765,485)" d="m0 0h3l-2 5-7 9-5 1-1-4 7-8z" fill="#D2D6DA"/>
<path transform="translate(1860,485)" d="m0 0h2l-2 5-6 8-3 2-4-1 1-5 10-8z" fill="#D2D6DA"/>
<path transform="translate(1553,450)" d="m0 0 3 1 1 2v10l-1 3-4-2-2-3v-8z" fill="#D2D6DA"/>
<path transform="translate(1888,465)" d="m0 0 4 1 4 4 6 2-2 4h-7l-5-5-1-4z" fill="#D2D6DA"/>
<path transform="translate(1816,464)" d="m0 0 4 2 5 4 5 2v3l-2 1h-6l-5-5z" fill="#D2D6DA"/>
<path transform="translate(1514,458)" d="m0 0 1 4-6 8-5 5h-3l1-4 8-9z" fill="#097BF5"/>
<path transform="translate(1669,410)" d="m0 0h1l-1 7-6 8-3 3h-2l2-5 8-12z" fill="#D2D6DA"/>
<path transform="translate(1038,441)" d="m0 0 4 2-2 1-3 8-1 7-2-3h-3l3-9 3-5z" fill="#116BEA"/>
<path transform="translate(999,441)" d="m0 0 3 1v3l-3 1h-14v-1h8l1-3z" fill="#116CEB"/>
<path transform="translate(1506,467)" d="m0 0 3 1-2 4-3 3h-3l1-4z" fill="#0E71EE"/>
<path transform="translate(991,470)" d="m0 0h2l-2 4-4 4v-2l-3-1z" fill="#0F6FED"/>
<path transform="translate(1207,455)" d="m0 0 2 2-2 13h-1v-6l-2-1z" fill="#0683FA"/>
</svg>
